<svg xmlns="http://www.w3.org/2000/svg" width="54" height="52" viewBox="0 0 54 52">
  <defs>
    <linearGradient id="icon_coaching_criteria-a" x1="0%" x2="98.577%" y1="0%" y2="98.577%">
      <stop offset="0%" stop-color="#FA384D"/>
      <stop offset="100%" stop-color="#FA513C"/>
    </linearGradient>
  </defs>
  <g fill="none" fill-rule="evenodd" transform="translate(-7 -8)">
    <rect width="68" height="68"/>
    <path fill="url(#icon_coaching_criteria-a)" d="M9.07818513,36.1298545 L12.8626696,36.1298545 L12.8626696,12.7824074 C12.8626696,11.4650313 13.3986226,10.2694294 14.2517723,9.39486882 C15.1158598,8.5313786 16.297144,8 17.5987442,8 L50.4121936,8 C51.702856,8 52.895078,8.5313786 53.7482277,9.39486882 C54.6341908,10.3358518 55.1373304,11.5093128 55.1373304,12.7824074 L55.1373304,36.1298545 L58.9218149,36.1298545 C60.0702856,36.1298545 61,37.0819079 61,38.2442986 L61,57.3960689 C61,58.5584595 60.0702856,59.4883721 58.9218149,59.4883721 L9.07818513,59.4883721 C7.9297144,59.4883721 7,58.5584595 7,57.3960689 L7,38.2442986 C7,37.0819079 7.9297144,36.1298545 9.07818513,36.1298545 Z M15.7906977,35.9716434 L21.5595585,35.9716434 C22.617183,35.9716434 23.4931952,36.8298461 23.5786598,37.9081009 C24.0059828,40.4497014 25.2986349,42.7052343 27.146807,44.3336191 C28.9736129,45.9510012 31.387988,46.9302326 34.0053415,46.9302326 C36.6226951,46.9302326 39.0263871,45.9510012 40.8638761,44.3336191 C42.7440974,42.6722265 44.0581157,40.3616806 44.4640725,37.7540645 C44.6136356,36.7198201 45.4682816,35.9936486 46.4511246,35.982646 L52.2093023,35.9716434 C52.2093023,30.9500399 52.2093023,27.319182 52.2093023,25.0790698 C52.2093023,22.1626303 52.2093023,18.0586607 52.2093023,12.7671608 C52.2093023,12.1730204 51.9956408,11.6338931 51.6324162,11.2267969 C51.173044,10.7646877 50.6282071,10.5116279 50.0299549,10.5116279 C43.4758884,10.5116279 38.5372213,10.5116279 35.2139535,10.5116279 C31.4151709,10.5116279 25.6707625,10.5116279 17.9807282,10.5116279 C17.3717929,10.5116279 16.826956,10.7646877 16.4316822,11.1717839 C16.0364084,11.5788801 15.7906977,12.1400126 15.7906977,12.7671608 L15.7906977,35.9716434 Z M21.4297562,26.269275 L29.7847016,34.9862713 C30.6057719,35.8417855 31.9261418,35.8417855 32.7472121,34.9862713 L32.7583076,34.9862713 L47.8260577,19.2864292 C48.647128,18.430915 48.647128,17.0320336 47.8260577,16.1765194 C47.0160829,15.3210052 45.673522,15.3210052 44.8524517,16.1765194 L31.2715046,30.3271871 L24.3922667,23.1824872 C23.5933875,22.315412 22.2508266,22.315412 21.4297562,23.1709262 C20.6086859,24.0264404 20.6086859,25.4137608 21.4297562,26.269275 Z M19.355201,39.3953488 L10.7674419,39.3953488 L10.7674419,55.7209302 L57.2325581,55.7209302 L57.2325581,39.3953488 L48.644799,39.3953488 C47.810496,42.5855439 46.1307659,45.3769645 43.8948338,47.4554249 C41.2250642,49.9326597 37.7654876,51.4310846 34.005562,51.4310846 C30.2345124,51.4310846 26.7860599,49.9326597 24.1162902,47.4554249 C21.8692341,45.3769645 20.189504,42.5855439 19.355201,39.3953488 Z"/>
  </g>
</svg>
