<svg xmlns="http://www.w3.org/2000/svg" width="55" height="55" viewBox="0 0 55 55">
  <defs>
    <linearGradient id="icon_encourage_coaching_culture-a" x1="0%" x2="98.577%" y1="0%" y2="98.577%">
      <stop offset="0%" stop-color="#FA384D"/>
      <stop offset="100%" stop-color="#FA513C"/>
    </linearGradient>
  </defs>
  <g fill="none" fill-rule="evenodd" transform="translate(-7 -7)">
    <path fill="url(#icon_encourage_coaching_culture-a)" d="M34.4832827,7 C42.0840932,7 48.9604863,10.0865073 53.9533941,15.0561183 C58.9574468,20.1482982 62,26.9675851 62,34.5 C62,37.475081 61.52077,40.3387358 60.6291793,43.0241086 C59.804458,45.5646272 58.6119554,47.9602917 57.1073961,50.1219611 L57.1073961,59.8829011 C57.1073961,61.0528768 56.1712259,62 54.9898683,62 L34.4832827,62 C26.893617,62 20.0172239,58.9246353 15.0466059,53.9438817 C10.064843,48.9742707 7,42.0992707 7,34.5 C7,26.911872 10.064843,20.036872 15.0466059,15.0672609 C20.0172239,10.0865073 26.893617,7 34.4832827,7 Z M34.4943713,11 C28.0100599,11 22.1449102,13.6336207 17.8783234,17.887931 C13.6342515,22.1197318 11,28.0059866 11,34.5 C11,40.9827586 13.6342515,46.8690134 17.8783234,51.1233238 C22.1223952,55.3776341 28.0100599,58 34.4943713,58 L53.080479,58 L53.080479,49.615182 C53.080479,49.1762452 53.2155689,48.7373084 53.497006,48.3546456 C54.9267066,46.3850575 56.0862275,44.167864 56.862994,41.7931034 C57.605988,39.4971264 58,37.0548372 58,34.5 C58,28.0510057 55.4107784,22.2210249 51.2117365,17.9779693 C46.8776048,13.6336207 40.9899401,11 34.4943713,11 Z M21.5,27 L47.5,27 C48.3284271,27 49,27.6715729 49,28.5 L49,28.5 C49,29.3284271 48.3284271,30 47.5,30 L21.5,30 C20.6715729,30 20,29.3284271 20,28.5 L20,28.5 C20,27.6715729 20.6715729,27 21.5,27 Z M21.5,33 L47.5,33 C48.3284271,33 49,33.6715729 49,34.5 L49,34.5 C49,35.3284271 48.3284271,36 47.5,36 L21.5,36 C20.6715729,36 20,35.3284271 20,34.5 L20,34.5 C20,33.6715729 20.6715729,33 21.5,33 Z M21.5,39 L47.5,39 C48.3284271,39 49,39.6715729 49,40.5 L49,40.5 C49,41.3284271 48.3284271,42 47.5,42 L21.5,42 C20.6715729,42 20,41.3284271 20,40.5 L20,40.5 C20,39.6715729 20.6715729,39 21.5,39 Z"/>
    <rect width="68" height="68"/>
  </g>
</svg>
