<svg xmlns="http://www.w3.org/2000/svg" xmlns:xlink="http://www.w3.org/1999/xlink" width="49" height="49" viewBox="0 0 49 49">
  <defs>
    <polygon id="icon_enterprise-a" points="0 0 49 0 49 49 0 49"/>
    <linearGradient id="icon_enterprise-b" x1="0%" x2="98.577%" y1="0%" y2="98.577%">
      <stop offset="0%" stop-color="#FA384D"/>
      <stop offset="100%" stop-color="#FA513C"/>
    </linearGradient>
  </defs>
  <g fill="none" fill-rule="evenodd" transform="translate(-10 -10)">
    <rect width="68" height="68"/>
    <g transform="translate(10 10)">
      <mask id="icon_enterprise-c" fill="#fff">
        <use xlink:href="#icon_enterprise-a"/>
      </mask>
      <path fill="url(#icon_enterprise-b)" d="M6.73359391,38.4695159 L13.0740588,38.4695159 C13.6990331,38.4695159 14.2131249,37.953413 14.2131249,37.3479846 C14.2131249,36.712781 13.6990331,36.2066032 13.0740588,36.2066032 L6.73359391,36.2066032 C6.08845916,36.2066032 5.57436741,36.712781 5.57436741,37.3479846 C5.57436741,37.953413 6.08845916,38.4695159 6.73359391,38.4695159 Z M24.0010286,11.4138141 L30.3414935,11.4138141 C30.9664678,11.4138141 31.4805596,10.9076362 31.4805596,10.2823577 C31.4805596,9.6570792 30.9664678,9.16082641 30.3414935,9.16082641 L24.0010286,9.16082641 C23.3659741,9.16082641 22.8418021,9.6570792 22.8418021,10.2823577 C22.8418021,10.9076362 23.3659741,11.4138141 24.0010286,11.4138141 Z M24.0010286,20.4356897 L30.3414935,20.4356897 C30.9664678,20.4356897 31.4805596,19.9195868 31.4805596,19.3042333 C31.4805596,18.6789548 30.9664678,18.172777 30.3414935,18.172777 L24.0010286,18.172777 C23.3659741,18.172777 22.8418021,18.6789548 22.8418021,19.3042333 C22.8418021,19.9195868 23.3659741,20.4356897 24.0010286,20.4356897 Z M24.0010286,29.4476403 L30.3414935,29.4476403 C30.9664678,29.4476403 31.4805596,28.9414624 31.4805596,28.326109 C31.4805596,27.6909054 30.9664678,27.1946526 30.3414935,27.1946526 L24.0010286,27.1946526 C23.3659741,27.1946526 22.8418021,27.6909054 22.8418021,28.326109 C22.8418021,28.9414624 23.3659741,29.4476403 24.0010286,29.4476403 Z M24.0010286,38.4695159 L30.3414935,38.4695159 C30.9664678,38.4695159 31.4805596,37.953413 31.4805596,37.3479846 C31.4805596,36.712781 30.9664678,36.2066032 30.3414935,36.2066032 L24.0010286,36.2066032 C23.3659741,36.2066032 22.8418021,36.712781 22.8418021,37.3479846 C22.8418021,37.953413 23.3659741,38.4695159 24.0010286,38.4695159 Z M45.1695124,45.2284788 L21.0273606,45.2284788 L21.0273606,3.78144622 L45.1695124,3.78144622 L45.1695124,45.2284788 Z M17.2069533,45.2284788 L3.84056778,45.2284788 L3.84056778,22.2122747 L17.2069533,22.2122747 L17.2069533,45.2284788 Z M47.0948365,0 L19.1221971,0 C18.0536927,0 17.2069533,0.85355479 17.2069533,1.88576058 L17.2069533,18.4506785 L1.90516355,18.4506785 C0.866899815,18.4506785 0,19.2943083 0,20.3364391 L0,47.1142394 C0,48.1563703 0.866899815,49 1.90516355,49 L47.0948365,49 C48.1331002,49 49,48.1563703 49,47.1142394 L49,1.88576058 C49,0.85355479 48.1331002,0 47.0948365,0 Z M35.87554,11.4138141 L42.2160049,11.4138141 C42.8409792,11.4138141 43.355071,10.9076362 43.355071,10.2823577 C43.355071,9.6570792 42.8409792,9.16082641 42.2160049,9.16082641 L35.87554,9.16082641 C35.2404855,9.16082641 34.7263937,9.6570792 34.7263937,10.2823577 C34.7263937,10.9076362 35.2404855,11.4138141 35.87554,11.4138141 Z M6.73359391,29.4476403 L13.0740588,29.4476403 C13.6990331,29.4476403 14.2131249,28.9414624 14.2131249,28.326109 C14.2131249,27.6909054 13.6990331,27.1946526 13.0740588,27.1946526 L6.73359391,27.1946526 C6.08845916,27.1946526 5.57436741,27.6909054 5.57436741,28.326109 C5.57436741,28.9414624 6.08845916,29.4476403 6.73359391,29.4476403 Z M35.87554,38.4695159 L42.2160049,38.4695159 C42.8409792,38.4695159 43.355071,37.953413 43.355071,37.3479846 C43.355071,36.712781 42.8409792,36.2066032 42.2160049,36.2066032 L35.87554,36.2066032 C35.2404855,36.2066032 34.7263937,36.712781 34.7263937,37.3479846 C34.7263937,37.953413 35.2404855,38.4695159 35.87554,38.4695159 Z M35.87554,20.4356897 L42.2160049,20.4356897 C42.8409792,20.4356897 43.355071,19.9195868 43.355071,19.3042333 C43.355071,18.6789548 42.8409792,18.172777 42.2160049,18.172777 L35.87554,18.172777 C35.2404855,18.172777 34.7263937,18.6789548 34.7263937,19.3042333 C34.7263937,19.9195868 35.2404855,20.4356897 35.87554,20.4356897 Z M35.87554,29.4476403 L42.2160049,29.4476403 C42.8409792,29.4476403 43.355071,28.9414624 43.355071,28.326109 C43.355071,27.6909054 42.8409792,27.1946526 42.2160049,27.1946526 L35.87554,27.1946526 C35.2404855,27.1946526 34.7263937,27.6909054 34.7263937,28.326109 C34.7263937,28.9414624 35.2404855,29.4476403 35.87554,29.4476403 Z" mask="url(#icon_enterprise-c)"/>
    </g>
  </g>
</svg>
