<svg xmlns="http://www.w3.org/2000/svg" width="56" height="58" viewBox="0 0 56 58">
  <defs>
    <linearGradient id="icon_integration-a" x1="0%" x2="98.577%" y1="0%" y2="98.577%">
      <stop offset="0%" stop-color="#FA384D"/>
      <stop offset="100%" stop-color="#FA513C"/>
    </linearGradient>
  </defs>
  <g fill="none" fill-rule="evenodd" transform="translate(-6 -5)">
    <path stroke="url(#icon_integration-a)" stroke-width="3" d="M9,38.5 L15.8510638,38.5 C16.4033486,38.5 16.8510638,38.9477153 16.8510638,39.5 L16.8510638,60 C16.8510638,60.5522847 16.4033486,61 15.8510638,61 L9,61 C8.44771525,61 8,60.5522847 8,60 L8,39.5 C8,38.9477153 8.44771525,38.5 9,38.5 Z M37.7659574,31.75 L44.6170213,31.75 C45.169306,31.75 45.6170213,32.1977153 45.6170213,32.75 L45.6170213,60 C45.6170213,60.5522847 45.169306,61 44.6170213,61 L37.7659574,61 C37.2136727,61 36.7659574,60.5522847 36.7659574,60 L36.7659574,32.75 C36.7659574,32.1977153 37.2136727,31.75 37.7659574,31.75 Z M23.3829787,17.125 L30.2340426,17.125 C30.7863273,17.125 31.2340426,17.5727153 31.2340426,18.125 L31.2340426,60 C31.2340426,60.5522847 30.7863273,61 30.2340426,61 L23.3829787,61 C22.830694,61 22.3829787,60.5522847 22.3829787,60 L22.3829787,18.125 C22.3829787,17.5727153 22.830694,17.125 23.3829787,17.125 Z M52.1489362,7 L59,7 C59.5522847,7 60,7.44771525 60,8 L60,60 C60,60.5522847 59.5522847,61 59,61 L52.1489362,61 C51.5966514,61 51.1489362,60.5522847 51.1489362,60 L51.1489362,8 C51.1489362,7.44771525 51.5966514,7 52.1489362,7 Z"/>
    <rect width="68" height="68"/>
  </g>
</svg>
