<svg xmlns="http://www.w3.org/2000/svg" width="21" height="20" viewBox="0 0 21 20">
  <g fill="none" fill-rule="evenodd" transform="translate(-6 -6)">
    <path fill="#9B9B9B" d="M10.6741127,12.3884005 L10.6741127,25.6607377 L6.25446459,25.6607377 L6.25446459,12.3884005 L10.6741127,12.3884005 Z M10.9553631,8.2901813 C10.9687559,9.56250425 10.0044691,10.5803626 8.46428865,10.5803626 L8.43750291,10.5803626 C6.95089399,10.5803626 6,9.56250425 6,8.2901813 C6,6.99107261 6.99107261,6 8.4910744,6 C10.0044691,6 10.9419702,6.99107261 10.9553631,8.2901813 Z M17.5178709,14.2748559 C18.0992823,13.3659675 19.1481237,12.0803644 21.4955542,12.0803644 C24.4018077,12.0803644 26.5714531,13.9821524 26.5714531,18.0535858 L26.5714531,25.6607377 L22.1651978,25.6607377 L22.1651978,18.562515 C22.1651978,16.7812629 21.5223399,15.5625114 19.928588,15.5625114 C18.7098366,15.5625114 17.9866214,16.3794767 17.6651925,17.1696562 C17.5580495,17.4642994 17.5178709,17.8526927 17.5178709,18.2544789 L17.5178709,25.6607377 L13.1116156,25.6607377 C13.1651871,13.6339377 13.1116156,12.3884005 13.1116156,12.3884005 L17.5178709,12.3884005 L17.5178709,14.2748559 Z"/>
    <rect width="32" height="32"/>
  </g>
</svg>
