<?xml version="1.0" encoding="UTF-8"?>
<svg width="31px" height="31px" viewBox="0 0 31 31" version="1.1" xmlns="http://www.w3.org/2000/svg" xmlns:xlink="http://www.w3.org/1999/xlink">
    <!-- Generator: Sketch 48 (47235) - http://www.bohemiancoding.com/sketch -->
    <title>Logo</title>
    <desc>Created with Sketch.</desc>
    <defs></defs>
    <g id="Page-1" stroke="none" stroke-width="1" fill="none" fill-rule="evenodd">
        <g id="logo" transform="translate(1.000000, 1.000000)">
            <g id="Logo" transform="translate(0.292754, 0.000000)">
                <path d="M8.18050532,1.98763253 C3.3677021,4.14958756 0,9.1254836 0,14.9183673 C0,18.640566 1.39041079,22.0254579 3.66119342,24.5432795 M6.24723656,26.7796761 C8.35653587,28.1850342 10.8653054,29 13.5573333,29 C19.4032582,29 24.3849893,25.1568556 26.2884095,19.7703099 M27.0379343,16.4254363 C27.0886542,15.9302942 27.1146667,15.427486 27.1146667,14.9183673 C27.1146667,7.14129638 21.0448418,0.83673469 13.5573333,0.83673469 C12.7858337,0.83673469 12.0293854,0.90366946 11.2930776,1.03225299" id="Oval-5" stroke="#FFFFFF" stroke-width="2"></path>
                <ellipse id="Oval-9-Copy-26" stroke="#FFFFFF" stroke-width="2" cx="10.0206377" cy="1.44897959" rx="1.3577971" ry="1.44897959"></ellipse>
                <ellipse id="Oval-9-Copy-27" stroke="#FFFFFF" stroke-width="2" cx="27.1146667" cy="18.5918367" rx="1.3577971" ry="1.44897959"></ellipse>
                <g id="Oval-9-Copy-28" transform="translate(2.000000, 23.000000)">
                    <g id="path-1-link" fill="#000000" fill-rule="nonzero">
                        <ellipse id="path-1" cx="2.7155942" cy="2.9387755" rx="2.3577971" ry="2.44897959"></ellipse>
                    </g>
                    <ellipse id="Oval" stroke="#FFFFFF" stroke-width="2" cx="2.7155942" cy="2.9387755" rx="1.3577971" ry="1.44897959"></ellipse>
                </g>
                <path d="M13.5573333,24.1020408 C8.67417565,24.1020408 4.7155942,19.9903702 4.7155942,14.9183673 C4.7155942,9.8463645 8.67417565,5.73469388 13.5573333,5.73469388 C18.440491,5.73469388 22.3990725,9.8463645 22.3990725,14.9183673 C22.3990725,19.9903702 18.440491,24.1020408 13.5573333,24.1020408 Z M13.1115322,11.7916969 C12.9354385,11.6535367 12.718085,11.5784473 12.4942609,11.5784473 C11.9419761,11.5784473 11.4942609,12.0261625 11.4942609,12.5784473 L11.4942609,17.3262513 C11.4942609,17.5272165 11.5548115,17.7235194 11.6680181,17.8895655 C11.9791279,18.3458868 12.6012537,18.4636039 13.057575,18.1524941 L16.2953878,15.9450246 C16.3801438,15.8872398 16.4555042,15.816758 16.518824,15.7360531 C16.8597335,15.3015429 16.7838552,14.672941 16.349345,14.3320315 L13.1115322,11.7916969 Z" id="Combined-Shape" fill="#FFFFFF" fill-rule="nonzero"></path>
            </g>
        </g>
    </g>
</svg>