<?xml version="1.0" encoding="UTF-8"?>
<svg width="33px" height="32px" viewBox="0 0 33 32" version="1.1" xmlns="http://www.w3.org/2000/svg" xmlns:xlink="http://www.w3.org/1999/xlink">
    <!-- Generator: Sketch 48 (47235) - http://www.bohemiancoding.com/sketch -->
    <title>logo_mobile_pactice_simple</title>
    <desc>Created with Sketch.</desc>
    <defs>
        <linearGradient x1="16.6988099%" y1="7.75437512%" x2="83.9615137%" y2="90.7036776%" id="linearGradient-1">
            <stop stop-color="#FF7830" offset="0%"></stop>
            <stop stop-color="#FF0541" offset="100%"></stop>
        </linearGradient>
    </defs>
    <g id="320" stroke="none" stroke-width="1" fill="none" fill-rule="evenodd" transform="translate(-17.000000, -8283.000000)">
        <g id="Group-13" transform="translate(17.000000, 8283.000000)">
            <g id="logo_mobile_pactice_simple">
                <g id="logo-black">
                    <path d="M8.62801389,4.05663675 C3.69895669,6.51335378 0.5,11.4623905 0.5,16.9795918 C0.5,20.3905839 1.71585399,23.6160701 3.88939822,26.1858582 L8.62801389,4.05663675 Z M8.34512399,29.7573823 C10.5053357,30.893305 12.93341,31.5 15.4550824,31.5 C21.4063217,31.5 26.6924864,28.0940604 29.0822068,22.9710527 L8.34512399,29.7573823 Z M30.3999032,17.5227191 C30.4067382,17.3421362 30.4101647,17.1610742 30.4101647,16.9795918 C30.4101647,8.96343442 23.7176881,2.45918367 15.4550824,2.45918367 C14.9689139,2.45918367 14.4857509,2.48169242 14.0066945,2.52637601 L30.3999032,17.5227191 Z" id="Shape" stroke="#9B9B9B"></path>
                    <ellipse id="Oval" fill="#9B9B9B" cx="11.0745744" cy="2.51428571" rx="2.01588031" ry="1.95918367"></ellipse>
                    <ellipse id="Oval" fill="#9B9B9B" cx="30.500269" cy="20.3885714" rx="2.01588031" ry="1.95918367"></ellipse>
                    <ellipse id="logo-blck-b" fill="#9B9B9B" fill-rule="nonzero" cx="5.54904653" cy="28.4564898" rx="2.68784041" ry="2.6122449"></ellipse>
                    <ellipse id="Oval" fill="#9B9B9B" cx="5.54904653" cy="28.4564898" rx="2.01588031" ry="1.95918367"></ellipse>
                    <path d="M15.4550824,26.7295918 C9.88838263,26.7295918 5.37568082,22.3438098 5.37568082,16.9336735 C5.37568082,11.5235372 9.88838263,7.1377551 15.4550824,7.1377551 C21.0217821,7.1377551 25.5344839,11.5235372 25.5344839,16.9336735 C25.5344839,22.3438098 21.0217821,26.7295918 15.4550824,26.7295918 Z M14.180199,13.0357189 C14.063556,12.9500882 13.9213626,12.9037601 13.7751821,12.9037601 C13.4040688,12.9037601 13.103222,13.1961455 13.103222,13.5568213 L13.103222,20.3104519 C13.103222,20.4377933 13.1415288,20.5623565 13.2134282,20.6688129 C13.4170731,20.9703353 13.8336655,21.0543238 14.1439137,20.8564065 L19.066174,17.7163372 C19.1305609,17.6752627 19.1872029,17.623736 19.233625,17.5640084 C19.4573096,17.2762115 19.3985847,16.8666738 19.1024593,16.6492803 L14.180199,13.0357189 Z" id="Shape" fill="#9B9B9B" fill-rule="nonzero"></path>
                </g>
            </g>
        </g>
    </g>
</svg>