<?xml version="1.0" encoding="UTF-8"?>
<svg width="31px" height="31px" viewBox="0 0 31 31" version="1.1" xmlns="http://www.w3.org/2000/svg" xmlns:xlink="http://www.w3.org/1999/xlink">
    <!-- Generator: Sketch 48 (47235) - http://www.bohemiancoding.com/sketch -->
    <title>logo</title>
    <desc>Created with Sketch.</desc>
    <defs></defs>
    <g id="Page-1" stroke="none" stroke-width="1" fill="none" fill-rule="evenodd">
        <g id="logo" transform="translate(1.000000, 1.000000)">
            <path d="M8.47325932,1.98763253 C3.6604561,4.14958756 0.292754,9.1254836 0.292754,14.9183673 C0.292754,18.640566 1.68316479,22.0254579 3.95394742,24.5432795 M6.53999056,26.7796761 C8.64928987,28.1850342 11.1580594,29 13.8500873,29 C19.6960122,29 24.6777433,25.1568556 26.5811635,19.7703099 M27.3306883,16.4254363 C27.3814082,15.9302942 27.4074207,15.427486 27.4074207,14.9183673 C27.4074207,7.14129638 21.3375958,0.83673469 13.8500873,0.83673469 C13.0785877,0.83673469 12.3221394,0.90366946 11.5858316,1.03225299" id="Oval-5" stroke="#FFFFFF" stroke-width="2"></path>
            <ellipse id="Oval-9-Copy-26" stroke="#FFFFFF" stroke-width="2" cx="10.3133917" cy="1.44897959" rx="1.3577971" ry="1.44897959"></ellipse>
            <ellipse id="Oval-9-Copy-27" stroke="#FFFFFF" stroke-width="2" cx="27.4074207" cy="18.5918367" rx="1.3577971" ry="1.44897959"></ellipse>
            <g id="Oval-9-Copy-28" transform="translate(2.292754, 23.000000)">
                <g id="path-1-link" fill-rule="nonzero">
                    <ellipse id="path-1" cx="2.7155942" cy="2.9387755" rx="2.3577971" ry="2.44897959"></ellipse>
                </g>
                <ellipse id="Oval" stroke="#FFFFFF" stroke-width="2" cx="2.7155942" cy="2.9387755" rx="1.3577971" ry="1.44897959"></ellipse>
            </g>
            <path d="M13.8500873,24.1020408 C8.96692965,24.1020408 5.0083482,19.9903702 5.0083482,14.9183673 C5.0083482,9.8463645 8.96692965,5.73469388 13.8500873,5.73469388 C18.733245,5.73469388 22.6918265,9.8463645 22.6918265,14.9183673 C22.6918265,19.9903702 18.733245,24.1020408 13.8500873,24.1020408 Z M13.4042862,11.7916969 C13.2281925,11.6535367 13.010839,11.5784473 12.7870149,11.5784473 C12.2347301,11.5784473 11.7870149,12.0261625 11.7870149,12.5784473 L11.7870149,17.3262513 C11.7870149,17.5272165 11.8475655,17.7235194 11.9607721,17.8895655 C12.2718819,18.3458868 12.8940077,18.4636039 13.350329,18.1524941 L16.5881418,15.9450246 C16.6728978,15.8872398 16.7482582,15.816758 16.811578,15.7360531 C17.1524875,15.3015429 17.0766092,14.672941 16.642099,14.3320315 L13.4042862,11.7916969 Z" id="Combined-Shape" fill="#FFFFFF" fill-rule="nonzero"></path>
        </g>
    </g>
</svg>