<svg xmlns="http://www.w3.org/2000/svg" width="168" height="128" viewBox="0 0 168 128">
  <defs>
    <linearGradient id="icon_make_personal-a" x1="0%" x2="98.577%" y1="0%" y2="98.577%">
      <stop offset="0%" stop-color="#FA384D"/>
      <stop offset="100%" stop-color="#FA513C"/>
    </linearGradient>
  </defs>
  <g fill="none" fill-rule="evenodd" transform="translate(-16 -36)">
    <path fill="url(#icon_make_personal-a)" d="M81.8925069,155.637775 C72.5529055,148.379474 65.1809945,138.168176 61.3010414,126.990944 C60.94076,127.018542 60.6359066,127.046141 60.3033391,127.046141 C53.2917096,127.046141 50.1046052,119.097887 50.1046052,113.38508 C50.1046052,109.548944 51.2685911,105.464424 53.9291304,102.62182 C53.8737025,102.401035 53.8459886,102.125054 53.8737025,101.821475 L53.8459886,88.160414 L32.7833859,80.1293661 L32.7833859,91.6101768 C36.7741948,92.9624838 39.6010178,96.771022 39.6010178,101.02113 C39.6010178,103.532557 38.6310295,105.850798 37.0790483,107.589478 L42.8435501,117.497197 C43.7026825,119.015093 43.1761175,120.94696 41.7072781,121.802501 C40.1830108,122.658042 38.2430342,122.161276 37.3839017,120.670979 L32.7833859,112.750323 L32.7833859,121.912893 C32.7833859,123.623976 31.3699744,125.031479 29.5962815,125.031479 C27.8780166,125.031479 26.4646051,123.623976 26.4646051,121.912893 L26.4646051,112.750323 L21.8918032,120.670979 C21.0049567,122.161276 19.0649802,122.658042 17.5684268,121.802501 C16.0718735,120.94696 15.5453084,119.015093 16.4321548,117.497197 L22.1689427,107.589478 C20.6169614,105.850798 19.6469731,103.532557 19.6469731,101.02113 C19.6469731,96.771022 22.4737961,92.9624838 26.4646051,91.6101768 L26.4646051,77.4799483 C24.6354843,76.1276412 23.8594937,73.6990082 24.7186261,71.4359638 C25.2451912,70.0836567 26.2706074,69.062527 27.5454491,68.5105649 L27.600877,68.4829668 L102.123691,36.4139715 C102.788826,36.1379905 103.481675,36 104.202237,36 C104.895086,36 105.587935,36.1379905 106.280784,36.4139715 L180.803598,68.4829668 L180.831312,68.5105649 C182.07844,69.062527 183.159284,70.0836567 183.658135,71.4359638 C184.683551,74.1405778 183.325567,77.1763691 180.6096,78.225097 L154.530772,88.160414 L154.503058,101.821475 C154.530772,102.125054 154.503058,102.401035 154.44763,102.62182 C157.10817,105.464424 158.272156,109.548944 158.272156,113.38508 C158.272156,119.097887 155.057337,127.046141 148.073422,127.046141 C147.740854,127.046141 147.408287,127.018542 147.07572,126.990944 C143.195766,138.168176 135.823855,148.379474 126.484254,155.637775 C112.211569,166.787408 96.1651917,166.787408 81.8925069,155.637775 Z M27.026,97.092 C26.378,97.764 26,98.66 26,99.696 C26,101.74 27.539,103.336 29.456,103.392 L29.618,103.392 C31.535,103.336 33.101,101.74 33.101,99.696 C33.101,98.66 32.696,97.764 32.075,97.092 L32.048,97.092 C30.671,95.636 28.376,95.636 27.026,97.092 Z M104.013936,47 L43,72.4076323 L58.107151,78 L58.107151,75.6339983 C58.107151,71.4128361 63.8211103,68.0520382 73.1028101,66.008673 C92.3072881,61.7875108 115.664839,61.7875108 134.89719,66.008673 C144.151017,68.0520382 149.920722,71.4128361 149.920722,75.6339983 L149.920722,78 L165,72.4076323 L104.013936,47 Z M73.9217759,72.171 C67.820296,73.571 64,74.971 64,75.979 L64,92.387 C66.1437632,91.659 68.5348837,90.987 71.1458774,90.455 C91.2642706,86.227 114.763214,86.227 134.881607,90.455 C137.4926,90.987 139.883721,91.659 142,92.387 L142,75.979 C142,74.971 138.234672,73.571 132.105708,72.171 C114.07611,67.943 91.9513742,67.943 73.9217759,72.171 Z M74.0046404,99.8386985 C66.437065,101.363563 56,102.752279 56,112.255452 C56,113.970924 56.9283643,119.553017 59.9385151,119.553017 C60.1073086,119.553017 60.3323666,119.498558 60.5011601,119.444098 C60.6699536,119.389639 60.8387471,119.30795 61.0075406,119.199031 C61.3169954,118.981193 61.6827146,118.763355 62.1046984,118.627207 C63.7926334,118.218761 65.5649652,119.144571 66.0713457,120.778355 C69.3346868,131.888081 76.4240139,141.963078 85.7920534,149.097265 C97.9451856,158.300912 111.054814,158.300912 123.179814,149.097265 C132.547854,141.963078 139.637181,131.888081 142.928654,120.778355 C143.406903,119.144571 145.179234,118.218761 146.867169,118.627207 C147.261021,118.763355 147.654872,118.981193 147.964327,119.199031 C148.133121,119.30795 148.301914,119.389639 148.470708,119.444098 C148.639501,119.498558 148.864559,119.553017 149.033353,119.553017 C152.043503,119.553017 153,113.970924 153,112.255452 C153,102.752279 142.534803,101.363563 134.967227,99.8386985 C115.837297,96.0537672 93.1345708,96.0537672 74.0046404,99.8386985 Z"/>
    <rect width="200" height="200"/>
  </g>
</svg>
