<svg xmlns="http://www.w3.org/2000/svg" width="54" height="54" viewBox="0 0 54 54">
  <defs>
    <linearGradient id="icon_multi_languare_support-a" x1="0%" x2="98.577%" y1="0%" y2="98.577%">
      <stop offset="0%" stop-color="#FA384D"/>
      <stop offset="100%" stop-color="#FA513C"/>
    </linearGradient>
  </defs>
  <g fill="none" fill-rule="evenodd" transform="translate(-7 -7)">
    <rect width="68" height="68"/>
    <path fill="url(#icon_multi_languare_support-a)" d="M34.01094,7 C41.4501621,7 48.2001621,10.0194489 53.0903566,14.9096434 C57.9914911,19.7998379 61,26.5498379 61,33.98906 C61,41.4501621 57.9914911,48.2001621 53.0903566,53.0903566 L52.9918963,53.1888169 C48.0907618,58.0243112 41.3845219,61 34.01094,61 C26.560778,61 19.7998379,57.969611 14.9096434,53.0903566 C10.0194489,48.2001621 7,41.4501621 7,33.98906 C7,26.5498379 10.0194489,19.7998379 14.9096434,14.9096434 L15.0409238,14.8002431 C19.9092382,9.97568882 26.6154781,7 34.01094,7 Z M30.1148371,11.3734567 C30.0278994,11.792843 29.9518289,12.2563752 29.8648911,12.730944 C29.3976008,15.4017725 28.8216382,18.5582063 27.3328294,20.0481313 C26.7459996,20.6441013 23.2358883,23.2266381 23.2576228,23.8777905 C23.2576228,24.0543742 24.0509297,24.0543742 26.9742112,24.0543742 L27.0176801,24.0543742 C28.5282234,24.0543742 30.4408537,24.5841253 32.0709363,25.5001533 C33.2554631,26.1954516 34.3639193,27.1114796 35.0811556,28.1820183 C35.8744625,29.3849948 36.2330807,30.7755915 35.8744625,32.2875895 L35.8744625,32.298626 C35.6571182,33.2477634 35.1246245,34.2410468 34.2552471,35.2453666 C31.3102311,38.644603 31.3537,38.9977704 31.5601771,40.6973886 C31.6253804,41.4257964 31.7340526,42.3307879 31.755787,43.6662022 C31.7775214,44.372537 31.7775214,45.0899083 31.7992559,45.7410607 C31.853592,47.3413506 31.8861936,48.6878013 31.7775214,49.7141941 L31.755787,49.7693766 C31.0276834,55.850478 25.8114189,51.5572866 23.9422575,49.4603551 C21.9644239,47.2199493 20.073528,44.2952816 19.4866982,42.8936484 C19.3128227,42.4632257 18.5521175,42.0769488 17.7479434,41.668599 C15.7701098,40.6863521 13.5640646,39.5716675 13.4553924,36.0731028 C13.3684546,33.7995875 13.8140106,32.1551518 14.1400271,30.9632117 C14.2813009,30.3893147 14.8137946,30.212731 14.585583,30.1354756 C14.1726287,29.9920013 13.4119235,30.168585 12.6512183,30.3341323 C12.2273968,30.4224241 11.7818408,30.510716 11.3580194,30.5658984 C11.1841439,31.7357654 11.0754717,32.9056325 11.0754717,34.108609 C11.0754717,40.4876954 13.6292679,46.2377024 17.7479434,50.4094925 L17.7262089,50.4094925 L17.7479434,50.420529 C20.1387313,52.8595914 23.0728801,54.7578663 26.365647,55.9056604 C28.2891446,55.5414565 30.2887126,54.6254285 32.1361396,54.2722611 C36.2765496,53.4776344 40.3300218,52.7161172 44.8290499,54.2612246 C46.6330081,53.2348318 48.2848252,51.9766729 49.7301651,50.5088208 L49.8388373,50.4094925 C50.9581607,49.2616984 51.9579448,47.992503 52.8490566,46.6129428 C51.9362103,47.4075695 51.0668329,47.97043 50.3061277,48.3235974 C49.1976715,48.8423121 48.1978874,48.908531 47.5023855,48.5112176 L47.4806511,48.5112176 C47.2850411,48.4008528 47.1220329,48.2794515 46.9916263,48.1249408 L46.9046885,48.0366489 C45.0572615,45.8403891 45.9918422,42.9157214 46.9698918,39.9469078 C47.9914103,36.7904741 49.0455304,33.5016025 45.1441992,32.2875895 C44.4921662,32.0889329 43.8510003,31.8130208 43.2750378,31.5150358 C41.7101584,30.6652267 40.4930301,29.4512137 39.7323248,28.2040913 C37.7979601,25.0366211 39.091159,23.2266381 41.1559303,20.9200134 C41.4928141,20.544773 41.8079634,20.1916056 42.0470422,19.9156935 C40.4169595,20.0039854 38.3087193,20.1143502 37.2872008,17.3662663 L37.2872008,17.3552298 L37.2872008,17.3662663 C37.145927,16.9689529 37.0589893,16.5385301 36.993786,16.0970709 L36.993786,16.0198155 C36.7655744,13.7352638 35.4832427,12.7419804 33.9400978,11.0754717 L33.7879567,11.0754717 C32.5382267,11.0754717 31.3102311,11.1748 30.1148371,11.3734567 Z M12.0943396,27.7997443 L12.3095037,27.7562692 C13.385324,27.5280245 14.4503861,27.2889111 15.5262065,27.6475813 C17.4734412,28.3105776 17.1829698,29.4300632 16.6558178,31.4299209 C16.3653463,32.473325 15.9888092,33.9080056 16.0533584,35.7557002 C16.1179076,37.7120828 17.6025397,38.4620295 18.9257987,39.1250258 C20.1629921,39.7554158 21.324878,40.320593 21.85203,41.6031104 C22.3576655,42.7986776 24.0359452,45.3528437 25.821807,47.3744391 C26.3059261,47.9070099 29.0169933,51.2980731 29.3074648,49.0047579 C29.4365633,47.8200596 29.372014,46.6027548 29.3289812,45.4289253 C29.3289812,44.7767978 29.3074648,44.0920638 29.2859484,43.3312484 C29.264432,42.2117628 29.1676082,41.363997 29.103059,40.6901319 C28.7803129,38.0924906 28.7157636,37.5599197 32.3735527,33.3863035 C32.9652539,32.7233072 33.2772418,32.1037861 33.4278567,31.5494777 C33.5999879,30.7777934 33.4063403,30.0713219 32.9867703,29.440932 C32.5026512,28.7127229 31.7280606,28.0823329 30.8458879,27.5714997 C29.5979363,26.875897 28.1563371,26.4737517 27.0374839,26.4737517 L26.9944511,26.4737517 C22.2285671,26.4737517 20.9483409,26.4737517 20.8837917,23.8978479 C20.8192425,21.5501888 24.1220109,19.7894445 25.6496757,18.2895512 C26.5533648,17.3765726 27.0374839,14.6811122 27.4570539,12.4095346 L27.5216031,12.0943396 C23.8422976,13.1486125 20.5718038,15.1267326 17.9468022,17.7569804 L17.8607366,17.8547995 C15.1496693,20.5828663 13.1486435,23.9847983 12.0943396,27.7997443 Z M41.4499623,55.9942593 C38.5135849,55.6916556 35.6556604,56.2184103 32.7416981,56.7563725 C32.3270189,56.8460329 31.8899245,56.9469008 31.4528302,57.0701839 C32.2821887,57.1486367 33.1339623,57.2046744 33.9857358,57.2046744 C36.5970943,57.2046744 39.0851698,56.7787876 41.4499623,55.9942593 Z M56.1280647,38.4822141 C56.2165606,38.3070911 56.3161186,38.1757489 56.4709865,38.0662971 C56.7807224,36.6324779 56.9245283,35.1439328 56.9245283,33.6225521 C56.9245283,27.3181257 54.3360216,21.6156845 50.1656496,17.4674595 C46.8138652,14.1510686 42.4443774,11.8525798 37.5660377,11.0754717 C38.6058652,12.3451131 39.4023288,13.6694805 39.6014447,15.42071 L39.6014447,15.4426004 C39.6456927,15.71623 39.6788787,15.9570241 39.7452507,16.1649826 C40.1324205,17.1828847 41.2607439,17.1062684 42.1235795,17.0624877 C43.4842049,16.9968166 44.5904043,16.9420907 44.9996981,18.4087454 C45.3868679,19.8316194 44.3691644,20.9480283 43.185531,22.2286149 C41.7806577,23.7390503 40.7850782,24.4833229 42.0129596,26.4534561 C42.5771213,27.3509613 43.4842049,28.2265761 44.6789003,28.8613968 C45.1103181,29.1021908 45.5859838,29.288259 46.1058976,29.4414915 C52.5661024,31.3787892 51.0727332,35.8663149 49.6236119,40.1896629 C48.8935202,42.4005902 48.1744906,44.5677367 49.0152022,45.7169811 L49.6014879,45.4652419 C50.2541456,45.1587767 51.0506092,44.6224627 51.9355687,43.8453546 C53.3183181,42.5976035 54.8338113,40.791648 56.1280647,38.4822141 Z"/>
  </g>
</svg>
