<svg xmlns="http://www.w3.org/2000/svg" width="42" height="56" viewBox="0 0 42 56">
  <defs>
    <linearGradient id="icon_native_functionality-a" x1="0%" x2="98.577%" y1="0%" y2="98.577%">
      <stop offset="0%" stop-color="#FA384D"/>
      <stop offset="100%" stop-color="#FA513C"/>
    </linearGradient>
  </defs>
  <g fill="none" fill-rule="evenodd" transform="translate(-13 -6)">
    <path fill="url(#icon_native_functionality-a)" d="M53.0941911,30.85893 C52.1114903,29.8460662 50.698858,29.1958326 49.1879556,29.1708236 L23.7237221,29.1708236 L23.7237221,21.0804173 C23.7237221,18.2293931 24.8783955,15.6534678 26.7332431,13.777794 L26.8192295,13.6652536 C28.6495096,11.8646067 31.1431128,10.7517069 33.8823912,10.7517069 C36.6585208,10.7517069 39.2012591,11.9146247 41.0561068,13.777794 C42.8986707,15.6534678 44.0287766,18.2293931 44.0287766,21.0804173 L44.0287766,22.1558036 C44.0287766,23.4187573 45.0360448,24.4441256 46.2767046,24.4441256 L46.4486772,24.4441256 C47.7016207,24.4441256 48.7088889,23.4187573 48.7088889,22.1558036 L48.7088889,21.0804173 C48.7088889,16.928926 47.0260139,13.1525694 44.3358705,10.4140857 C41.6702947,7.70061091 37.9605994,6 33.8823912,6 C29.8656018,6 26.229609,7.63808845 23.5640332,10.3140497 L23.4166281,10.4140857 C20.7264847,13.1525694 19.0681772,16.928926 19.0681772,21.0804173 L19.0681772,29.1708236 L18.6628131,29.1708236 C17.1027757,29.1708236 15.6901433,29.8210572 14.6828751,30.85893 L14.6828751,30.8714345 C13.6510393,31.9093073 13,33.3473239 13,34.9228899 L13,55.9179319 C13,57.5060023 13.6510393,58.9440189 14.6828751,59.9943962 C15.6901433,61.0197646 17.1027757,61.6699982 18.6628131,61.6699982 L49.114253,61.6699982 C50.5760204,61.6699982 51.9149502,61.0947915 52.9222185,60.1444502 L53.0941911,59.9818918 C54.1260269,58.9440189 54.7524986,57.5060023 54.7524986,55.9179319 L54.7524986,34.9228899 C54.7524986,33.3473239 54.1260269,31.9093073 53.0941911,30.85893 Z M50.1133321,56.0097108 C50.1133321,56.2996587 49.9902773,56.5391809 49.8180006,56.7282773 L49.7564732,56.8039159 C49.5841964,56.9299802 49.3626977,57.0308317 49.1288936,57.0308317 L18.623605,57.0308317 C18.3651899,57.0308317 18.0944693,56.9047673 17.9344981,56.7282773 C17.7622213,56.5391809 17.6391665,56.2996587 17.6391665,56.0097108 L17.6391665,34.8435135 C17.6391665,34.5661721 17.7376104,34.3140435 17.9344981,34.1375534 L17.9344981,34.1501599 C18.0944693,33.948457 18.3651899,33.8349991 18.623605,33.8349991 L49.1288936,33.8349991 C49.3873087,33.8349991 49.6334183,33.948457 49.8180006,34.1501599 C49.9902773,34.3140435 50.1133321,34.5787785 50.1133321,34.8435135 L50.1133321,56.0097108 Z M33.9075637,37.314374 C32.3128502,37.314374 30.8329561,37.9295274 29.7613086,38.9306596 C28.7151766,39.9317917 28.0772912,41.3189025 28.0772912,42.8386935 C28.0772912,44.3584844 28.7151766,45.7455952 29.7613086,46.7467273 C30.5140134,47.4342518 31.4325684,47.9408488 32.453185,48.1941473 L32.453185,51.0166162 C32.453185,51.7765117 33.1038281,52.3916651 33.9075637,52.3916651 C34.724057,52.3916651 35.3747001,51.7765117 35.3747001,51.0166162 L35.3747001,48.1941473 C36.3953167,47.9408488 37.3138717,47.4342518 38.0410611,46.7467273 C39.1127085,45.7455952 39.7633516,44.3584844 39.7633516,42.8386935 C39.7633516,41.3189025 39.1127085,39.9317917 38.0410611,38.9306596 C36.994929,37.9295274 35.5277926,37.314374 33.9075637,37.314374 Z M33.9352343,45.4329154 L33.8209013,45.4329154 C33.207042,45.4228302 32.643499,45.1505313 32.2409683,44.7471255 C31.8283743,44.3336346 31.5566661,43.7587814 31.5566661,43.1133321 C31.5566661,42.477968 31.8283743,41.8829445 32.2409683,41.4694535 C32.6535623,41.0559626 33.2472951,40.7937489 33.8812809,40.7937489 C34.5253301,40.7937489 35.0989364,41.0559626 35.5316569,41.4694535 C35.9442509,41.8829445 36.1958326,42.477968 36.1958326,43.1133321 C36.1958326,43.7587814 35.9442509,44.3336346 35.5316569,44.7471255 C35.1190629,45.1505313 34.5692202,45.4228302 33.9352343,45.4329154 Z"/>
    <rect width="68" height="68"/>
  </g>
</svg>
