<svg xmlns="http://www.w3.org/2000/svg" xmlns:xlink="http://www.w3.org/1999/xlink" width="62" height="55" viewBox="0 0 62 55">
  <defs>
    <path id="icon_offline-a" d="M46.7613793,1.51523077 L0.513655172,50.7047692 C-0.195068966,51.4596923 -0.167275862,52.6507692 0.578862069,53.3669231 C1.32393103,54.0830769 2.50406897,54.0518462 3.2127931,53.2969231 L49.4605172,4.10846154 C50.1703103,3.35353846 50.1414483,2.16138462 49.3963793,1.44523077 C49.0361379,1.10061538 48.5754138,0.929384615 48.1146897,0.929384615 C47.6208276,0.929384615 47.1280345,1.12538462 46.7613793,1.51523077 Z"/>
    <linearGradient id="icon_offline-b" x1="12.844%" x2="76.069%" y1="50%" y2="264.834%">
      <stop offset="0%" stop-color="#FA384D"/>
      <stop offset="100%" stop-color="#FA513C"/>
    </linearGradient>
  </defs>
  <g fill="none" fill-rule="evenodd" transform="translate(-3 -7)">
    <g transform="translate(3 7)">
      <g transform="translate(5.276 .11)"/>
      <path fill="url(#icon_offline-b)" d="M36.0392103 13.5781692C38.3994862 13.8797077 40.7084517 14.3977077 42.9457966 15.1246308L46.1772793 11.6989385C44.0479 10.8901692 41.8554517 10.2472462 39.6095552 9.79278462 36.8559 9.23709231 34.0284862 8.94955385 31.1572448 8.94955385 19.7887966 8.94955385 9.09486552 13.4155538 1.04555517 21.5247846.209624138 22.3669385.209624138 23.7292462 1.04555517 24.5714 1.88041724 25.4124769 3.23372759 25.4124769 4.06858966 24.5714 11.310831 17.2752462 20.9304517 13.2572462 31.1572448 13.2572462 32.8034517 13.2572462 34.4314862 13.3735538 36.0392103 13.5781692M55.129331 16.3969077C53.4061586 15.2079846 51.6060207 14.1547538 49.7417448 13.2415231L46.6299862 16.5401385C48.5412966 17.3919846 50.3841931 18.3989077 52.1426414 19.5641385 54.3158483 21.0050615 56.3618483 22.6742923 58.2453655 24.5707538 58.6622621 24.9918308 59.2095724 25.2018308 59.7568828 25.2018308 60.3041931 25.2018308 60.8504345 24.9918308 61.2684 24.5707538 62.1032621 23.7296769 62.1032621 22.3662923 61.2684 21.5252154 59.3635034 19.6061385 57.3057448 17.8981385 55.129331 16.3969077zM47.9199069 24.0408C46.0759414 22.9423385 44.135769 22.0323385 42.1218379 21.3194154L38.8379759 24.8011077C40.9417 25.3858769 42.9684586 26.2075692 44.8840448 27.2586462 47.2828034 28.5768 49.5105276 30.2460308 51.4988034 32.2469538 51.9157 32.6680308 52.4630103 32.8780308 53.0103207 32.8780308 53.5565621 32.8780308 54.1038724 32.6680308 54.5218379 32.2469538 55.3567 31.4058769 55.3567 30.0424923 54.5218379 29.2014154 52.5164586 27.1811077 50.2983552 25.4569538 47.9199069 24.0408"/>
      <path fill="url(#icon_offline-b)" d="M31.1568172 23.7516462C32.3198517 23.7516462 33.4700586 23.8291846 34.6074379 23.9659538L38.1606793 20.1978C35.8837828 19.7045692 33.5395414 19.4439538 31.1568172 19.4439538 30.9344724 19.4439538 30.7131966 19.4558 30.4919207 19.4601077 21.9198862 19.6302615 13.8801966 23.0678 7.7935069 29.2019538 6.95757586 30.0430308 6.95757586 31.4053385 7.7935069 32.2474923 8.62836897 33.0885692 9.98061034 33.0885692 10.8165414 32.2474923 15.0154379 28.0162615 20.282231 25.2604154 26.0001276 24.2222615 27.6858862 23.9153385 29.4079897 23.7516462 31.1568172 23.7516462M40.5666 31.8369692C38.4169103 30.9151231 36.1646 30.3228154 33.8759448 30.0611231L29.9218414 34.2546615C32.4328414 34.0963538 34.9620138 34.4194308 37.3714621 35.2249692 40.1849793 36.1640462 42.8317379 37.7374308 45.0658759 39.9882 45.4838414 40.4092769 46.0300828 40.6192769 46.5773931 40.6192769 47.1247034 40.6192769 47.6709448 40.4092769 48.0889103 39.9882 48.9237724 39.1471231 48.9237724 37.7837385 48.0889103 36.9426615 45.8633241 34.7005077 43.2988759 33.0108154 40.5666 31.8369692M14.2255793 36.9428769C13.3907172 37.7839538 13.3907172 39.1473385 14.2255793 39.9884154 15.0604414 40.8294923 16.4137517 40.8294923 17.2486138 39.9884154 19.0872345 38.1361077 21.2069931 36.7414923 23.4667862 35.7765692L28.9174414 29.9967231C23.5533724 30.5007231 18.3250621 32.8139538 14.2255793 36.9428769M30.8854069 50.7577538C28.9067517 50.7577538 27.2979586 49.1359077 27.2979586 47.1436 27.2979586 46.5189846 27.4700621 45.9406769 27.7469241 45.4280615 28.0515793 44.8659077 28.4919931 44.3952923 29.0339586 44.0636 29.5759241 43.7319077 30.2055448 43.5294462 30.8854069 43.5294462 32.8640621 43.5294462 34.4728552 45.1502154 34.4728552 47.1436 34.4728552 49.1359077 32.8640621 50.7577538 30.8854069 50.7577538M32.7443379 40.1296C32.1510621 39.9691385 31.5299931 39.8765231 30.8854069 39.8765231 26.9067172 39.8765231 23.6709586 43.1363692 23.6709586 47.1436 23.6709586 47.9222154 23.7960276 48.6717538 24.0226483 49.3771385 24.960131 52.2945231 27.6806483 54.4117538 30.8854069 54.4117538 34.8640966 54.4117538 38.0998552 51.1508308 38.0998552 47.1436 38.0998552 43.7846769 35.8229586 40.9588308 32.7443379 40.1296"/>
      <path fill="url(#icon_offline-b)" d="M54.8752771,3.25638372 L8.62755297,52.4448453 C7.91775987,53.2008453 6.73762194,53.2309991 5.99255297,52.5159222 C5.24748401,51.7997683 5.21755297,50.6076145 5.92734608,49.8526914 L52.1750702,0.664229874 C52.8848633,-0.0906932026 54.0650012,-0.121923972 54.8100702,0.594229874 C55.5551392,1.31038372 55.5850702,2.50146064 54.8752771,3.25638372 Z"/>
    </g>
    <rect width="68" height="68"/>
  </g>
</svg>
