<?xml version="1.0" encoding="UTF-8"?>
<svg width="157px" height="133px" viewBox="0 0 157 133" version="1.1" xmlns="http://www.w3.org/2000/svg" xmlns:xlink="http://www.w3.org/1999/xlink">
    <!-- Generator: Sketch 48 (47235) - http://www.bohemiancoding.com/sketch -->
    <title>icon_by_providing</title>
    <desc>Created with Sketch.</desc>
    <defs>
        <linearGradient x1="-133.312%" y1="34.7940218%" x2="98.577%" y2="67.1239986%" id="linearGradient-1">
            <stop stop-color="#FA384D" offset="0%"></stop>
            <stop stop-color="#FA513C" offset="100%"></stop>
        </linearGradient>
        <linearGradient x1="-133.312%" y1="22.9423403%" x2="98.577%" y2="80.4706031%" id="linearGradient-2">
            <stop stop-color="#FA384D" offset="0%"></stop>
            <stop stop-color="#FA513C" offset="100%"></stop>
        </linearGradient>
        <linearGradient x1="-133.312%" y1="34.9774748%" x2="98.577%" y2="66.9174056%" id="linearGradient-3">
            <stop stop-color="#FA384D" offset="0%"></stop>
            <stop stop-color="#FA513C" offset="100%"></stop>
        </linearGradient>
    </defs>
    <g id="Page-1" stroke="none" stroke-width="1" fill="none" fill-rule="evenodd">
        <g id="icon_by_providing" transform="translate(3.000000, 4.000000)">
            <path d="M151,93 C152,109 127,106 126.099979,107 C125.84271,85.283446 115.323268,67.6660928 97,56.2378416 C106.48322,44.6118077 108.759336,31.7271558 103.778323,17.662999 C113.386604,13.5886728 124.827927,17.2170886 130.927345,26.1820446 C137.780705,36.2653725 136.058432,48.0819972 126.099979,58.1221725 C141.36666,66.7073908 149.666667,78.3333333 151,93 Z" id="Shape" stroke="url(#linearGradient-1)" stroke-width="5"></path>
            <path d="M95.8168863,57.0085785 C101.722877,62.1009503 108.134788,66.67905 113.36263,72.3504273 C120.757677,80.3737898 123.954662,90.4937997 124.923445,101.340264 C125.483187,107.583454 122.957174,112.147169 117.880031,115.50612 C110.542394,120.357539 102.221621,122.349894 93.7035033,123.569042 C77.1121904,125.946201 60.6141676,125.604552 44.4677775,120.691996 C26.9686785,115.36946 22.9033763,107.687747 28.106102,90.087417 C32.1139949,76.5329331 40.4240037,66.3697675 52.8639004,59.6446721 C53.843448,59.1160149 54.8445242,58.6305133 56.2618185,57.9040591 C47.5248273,50.1719975 42.9607811,40.8108085 43.7824529,29.3637611 C44.3780753,21.0455013 47.8656956,13.9391973 54.0659094,8.27141628 C66.3443421,-2.94906381 85.2607353,-2.72609273 97.2736495,8.77130306 C111.041138,21.9445782 110.30558,39.3363224 95.8168863,57.0085785 Z" id="Shape" stroke="url(#linearGradient-2)" stroke-width="7"></path>
            <path d="M27.7274594,108.809925 C19.9579775,108.18758 11.057783,106.66949 4.84652593,102.762745 C1.41626722,100.60792 -0.203276592,97.593323 0.0203575202,93.4023859 C0.734543877,80.0453478 6.86283994,70.0446567 18.3222847,63.2204442 C19.4115992,62.56932 20.5658398,62.026117 22.1493136,61.191527 C16.0859435,55.5148757 6,41.8099254 18.4954208,27.4517854 C25.0618239,19.9065145 35.9316675,16.6021148 45.8797784,20.9189599 C41.1293571,34.7616431 43.4847292,47.5143229 53,59.0043255 C34.6908588,70.5015228 27.6553193,86.9055341 27.7274594,108.809925 Z" id="Shape" stroke="url(#linearGradient-3)" stroke-width="5"></path>
        </g>
    </g>
</svg>