<?xml version="1.0" encoding="UTF-8"?>
<svg width="51px" height="54px" viewBox="0 0 51 54" version="1.1" xmlns="http://www.w3.org/2000/svg" xmlns:xlink="http://www.w3.org/1999/xlink">
    <!-- Generator: Sketch 48 (47235) - http://www.bohemiancoding.com/sketch -->
    <title>icon_social_learning</title>
    <desc>Created with Sketch.</desc>
    <defs>
        <linearGradient x1="0%" y1="5.40123457%" x2="98.577%" y2="93.3294846%" id="linearGradient-1">
            <stop stop-color="#FA384D" offset="0%"></stop>
            <stop stop-color="#FA513C" offset="100%"></stop>
        </linearGradient>
    </defs>
    <g id="Page-1" stroke="none" stroke-width="1" fill="none" fill-rule="evenodd">
        <g id="icon_social_learning" fill="url(#linearGradient-1)" fill-rule="nonzero">
            <path d="M18.6849167,0 C25.7593594,0 31.8184376,5.3188648 32.9000216,12.3956594 C33.9705691,12.0463272 35.0962995,11.8547579 36.2772127,11.8547579 C39.4336724,11.8547579 42.2921446,13.1844741 44.3670201,15.2804674 C46.4308591,17.3989983 47.7111015,20.3063439 47.7111015,23.5404841 C47.7111015,26.6168614 46.5191517,29.422788 44.6208613,31.5187813 L47.335858,34.2796327 C48.549881,35.5191987 49.4548799,36.8827212 50.0729279,38.4152755 C50.6799394,39.9365609 51,41.5705342 51,43.2946578 L51,46.7654424 C51,47.6669449 50.7240857,48.6360601 50.2053668,49.3910684 C49.6425016,50.1911519 48.8037221,50.7771285 47.7442112,50.8898164 C47.6559186,50.8898164 47.6007358,50.9010851 47.5124432,50.9010851 L44.885739,50.9123539 L44.885739,51.8476628 C44.885739,53.0308848 43.9365938,54 42.7887903,54 C31.884657,54 21.0025968,54 10.1315733,54 C8.9948063,54 8.0456611,53.0308848 8.0456611,51.8476628 L8.0456611,49.9432387 L3.9510928,49.9432387 C3.7965808,49.9432387 3.6420688,49.9207012 3.50963,49.8868948 C2.3949362,49.7178631 1.5340835,49.0642738 0.92707206,48.2078464 C0.32006059,47.3401503 0,46.2245409 0,45.1652755 L0,40.6239566 C0,38.437813 0.38628003,36.3643573 1.1698767,34.4486644 C1.9424367,32.5329716 3.1012768,30.7975793 4.6132872,29.2424875 L8.641636,25.1293823 C5.9487124,22.3685309 4.3373729,18.706177 4.3373729,14.6606845 C4.3373729,6.5922371 10.8048042,0 18.6849167,0 Z M40.6587319,50.625 L40.6587319,43.3642961 C40.6587319,42.6131888 41.2326336,41.9932272 41.9279377,41.9932272 C42.6122052,41.9932272 43.1750703,42.6131888 43.1750703,43.3642961 L43.1750703,47.3582793 L46.795066,47.3582793 L46.795066,43.8292673 C46.795066,42.5893441 46.6074443,41.4328773 46.2211643,40.3956339 C45.8128111,39.3464681 45.2057996,38.3688364 44.3890933,37.474661 L41.2215971,34.0767947 C39.7978792,34.8159796 38.1975763,35.2451838 36.5200173,35.2809508 C37.0939191,37.0812239 37.4029431,38.988798 37.4029431,41.0036731 L37.4029431,45.8083754 C37.4029431,46.9290752 37.0828825,48.1093867 36.475871,49.0274067 C36.0012984,49.7546693 35.3501407,50.3150192 34.5775806,50.625 L40.6587319,50.625 Z M32.8779485,17.004591 L32.8558754,17.1285476 L32.8558754,17.207429 L32.8338022,17.2525042 L32.8338022,17.2750417 L32.7013633,17.8948247 L32.7013633,17.9624374 L32.6792902,18.0187813 L32.6572171,18.086394 C32.0281324,20.7007513 30.7368535,23.1010017 28.8606362,25.0166945 L28.8385631,25.0166945 L28.8385631,25.0279633 L28.7613071,25.1293823 L32.7896559,29.2424875 C33.1980091,29.6594324 33.5842891,30.1101836 33.948496,30.5609349 C34.2354469,30.6510851 34.5334343,30.7299666 34.8314218,30.7975793 C35.2618481,30.8989983 35.7364207,30.9440735 36.2772127,30.9440735 C38.2637957,30.9440735 40.0737936,30.1101836 41.3871456,28.7804674 C42.7004977,27.4394825 43.5172041,25.5914023 43.5172041,23.5404841 C43.5172041,21.5008347 42.7004977,19.6414858 41.3871456,18.3117696 C40.0737936,16.9820534 38.2637957,16.1368948 36.2772127,16.1368948 C35.5046527,16.1368948 34.7762389,16.2721202 34.0809349,16.486227 C33.6725817,16.6214524 33.2642285,16.8017529 32.8779485,17.004591 Z M9.0071959,46.4013663 L9.0071959,40.5117438 C9.0071959,39.7843403 9.6093935,39.1859922 10.313851,39.1859922 C11.0296707,39.1859922 11.6091438,39.7843403 11.6091438,40.5117438 L11.6091438,50.625 L24.9370254,50.625 L24.9370254,40.5117438 C24.9370254,39.7843403 25.5164985,39.1859922 26.2323182,39.1859922 C26.9367757,39.1859922 27.5162489,39.7843403 27.5162489,40.5117438 L27.5162489,46.4013663 C31.3188044,46.4013663 33.2200822,46.4013663 33.2200822,46.4013663 C33.2200822,46.4013663 33.2200822,46.0845938 33.2200822,45.8851444 L33.2200822,41.1570212 C33.2200822,39.4441031 32.9360268,37.8719728 32.3338292,36.428898 C31.9929627,35.5607066 31.5271118,34.7277122 30.9590009,33.9299147 L30.913552,33.8595208 C30.5385988,33.3432989 30.129559,32.8974709 29.7091569,32.4516429 L25.0960964,27.6648581 C23.0508972,28.7676958 20.7216426,29.3895085 18.2560413,29.3895085 C15.8245266,29.3895085 13.495272,28.7676958 11.4500728,27.6648581 L6.92791,32.3460521 L6.8370123,32.4516429 C5.6553416,33.6718038 4.7690886,34.9975554 4.1896155,36.428898 C3.6101424,37.8602405 3.326087,39.4441031 3.326087,41.1570212 L3.326087,45.8851444 C3.326087,46.0845938 3.3715358,46.2723109 3.4397091,46.4013663 L9.0071959,46.4013663 Z M18.6849167,4.2708681 C13.1114477,4.2708681 8.5202337,8.9474124 8.5202337,14.6606845 C8.5202337,20.4415693 13.1335209,25.0392321 18.6849167,25.0392321 C24.2252759,25.0392321 28.8606362,20.4753756 28.8606362,14.6606845 C28.8606362,8.9361436 24.3135685,4.2708681 18.6849167,4.2708681 Z" id="Shape"></path>
        </g>
    </g>
</svg>