<svg xmlns="http://www.w3.org/2000/svg" width="22" height="18" viewBox="0 0 22 18">
  <g fill="none" fill-rule="evenodd" transform="translate(-5 -7)">
    <path fill="#9B9B9B" d="M26.107168,9.03571671 C25.5178816,9.89286059 24.7812736,10.6562544 23.9375226,11.2723265 C23.9509154,11.4598267 23.9509154,11.647327 23.9509154,11.8348272 C23.9509154,17.553584 19.5982317,24.1428776 11.6428651,24.1428776 C9.19196928,24.1428776 6.91518085,23.4330553 5,22.200911 C5.3482147,22.2410896 5.68303653,22.2544825 6.0446441,22.2544825 C8.06696794,22.2544825 9.9285773,21.5714459 11.4151862,20.406266 C9.51339824,20.3660874 7.91964634,19.1205502 7.37053854,17.4062624 C7.638396,17.446441 7.90625346,17.4732268 8.1875038,17.4732268 C8.57589712,17.4732268 8.96429044,17.4196553 9.32589801,17.3259052 C7.34375279,16.924119 5.85714388,15.1830455 5.85714388,13.0803644 L5.85714388,13.0267929 C6.43303742,13.3482219 7.10268108,13.549115 7.81250335,13.5759007 C6.64732339,12.7991141 5.88392963,11.4732196 5.88392963,9.97321783 C5.88392963,9.16964544 6.09821559,8.43303742 6.47321604,7.79017951 C8.60268287,10.4151826 11.8035795,12.1294704 15.3928695,12.3169706 C15.3259052,11.9955417 15.2857265,11.6607198 15.2857265,11.325898 C15.2857265,8.9419666 17.2143003,7 19.6116246,7 C20.8571618,7 21.9821631,7.52232205 22.7723426,8.36607306 C23.7500224,8.17857283 24.6875235,7.81696526 25.5178816,7.32142895 C25.1964526,8.32589444 24.5134161,9.16964544 23.6160936,9.70536037 C24.4866304,9.61161026 25.3303814,9.37053854 26.107168,9.03571671 Z"/>
    <rect width="32" height="32"/>
  </g>
</svg>
