<svg xmlns="http://www.w3.org/2000/svg" width="54" height="52" viewBox="0 0 54 52"><defs><linearGradient id="a" x1="0%" x2="98.577%" y1="0%" y2="98.577%"><stop offset="0%" stop-color="#FA384D"/><stop offset="100%" stop-color="#FA513C"/></linearGradient></defs><g fill="none" fill-rule="evenodd"><path d="M-7-8h68v68H-7z"/><path fill="url(#a)" d="M9.078 36.13h3.785V12.782c0-1.317.536-2.513 1.389-3.387A4.72 4.72 0 0 1 17.599 8h32.813c1.29 0 2.483.531 3.336 1.395.886.94 1.39 2.114 1.39 3.387V36.13h3.784c1.148 0 2.078.952 2.078 2.114v19.152a2.08 2.08 0 0 1-2.078 2.092H9.078A2.08 2.08 0 0 1 7 57.396V38.244c0-1.162.93-2.114 2.078-2.114zm6.713-.158h5.769c1.057 0 1.933.858 2.019 1.936a10.998 10.998 0 0 0 3.568 6.426 10.355 10.355 0 0 0 13.717 0 11.056 11.056 0 0 0 3.6-6.58 2.039 2.039 0 0 1 1.987-1.771l5.758-.011V12.767c0-.594-.213-1.133-.577-1.54-.459-.462-1.004-.715-1.602-.715H17.981a2.15 2.15 0 0 0-1.55.66 2.278 2.278 0 0 0-.64 1.595v23.205zm5.639-9.703l8.355 8.717a2.03 2.03 0 0 0 2.962 0h.011l15.068-15.7a2.271 2.271 0 0 0 0-3.11 2.043 2.043 0 0 0-2.974 0l-13.58 14.151-6.88-7.145c-.799-.867-2.141-.867-2.962-.011a2.257 2.257 0 0 0 0 3.098zm-2.075 13.126h-8.588v16.326h46.466V39.395h-8.588c-.835 3.19-2.514 5.982-4.75 8.06-2.67 2.478-6.13 3.976-9.89 3.976-3.77 0-7.219-1.498-9.889-3.976-2.247-2.078-3.926-4.87-4.76-8.06z" transform="translate(-7 -8)"/></g></svg>