<svg xmlns="http://www.w3.org/2000/svg" width="55" height="55" viewBox="0 0 55 55"><defs><linearGradient id="a" x1="0%" x2="98.577%" y1="0%" y2="98.577%"><stop offset="0%" stop-color="#FA384D"/><stop offset="100%" stop-color="#FA513C"/></linearGradient></defs><g fill="none" fill-rule="evenodd"><path fill="url(#a)" d="M34.483 7c7.601 0 14.477 3.087 19.47 8.056C58.957 20.148 62 26.968 62 34.5c0 2.975-.48 5.839-1.37 8.524a27.066 27.066 0 0 1-3.523 7.098v9.76A2.11 2.11 0 0 1 54.99 62H34.483a27.374 27.374 0 0 1-19.436-8.056A27.36 27.36 0 0 1 7 34.5a27.353 27.353 0 0 1 8.047-19.433C20.017 10.087 26.894 7 34.483 7zm.011 4c-6.484 0-12.35 2.634-16.616 6.888A23.402 23.402 0 0 0 11 34.5a23.488 23.488 0 0 0 6.878 16.623A23.406 23.406 0 0 0 34.494 58H53.08v-8.385c0-.439.136-.878.417-1.26a23.812 23.812 0 0 0 3.366-6.562A23.604 23.604 0 0 0 58 34.5a23.4 23.4 0 0 0-6.788-16.522C46.878 13.634 40.99 11 34.494 11zM21.5 27h26a1.5 1.5 0 0 1 0 3h-26a1.5 1.5 0 0 1 0-3zm0 6h26a1.5 1.5 0 0 1 0 3h-26a1.5 1.5 0 0 1 0-3zm0 6h26a1.5 1.5 0 0 1 0 3h-26a1.5 1.5 0 0 1 0-3z" transform="translate(-7 -7)"/><path d="M-7-7h68v68H-7z"/></g></svg>