<svg xmlns="http://www.w3.org/2000/svg" xmlns:xlink="http://www.w3.org/1999/xlink" width="49" height="49" viewBox="0 0 49 49"><defs><path id="a" d="M0 0h49v49H0z"/><linearGradient id="b" x1="0%" x2="98.577%" y1="0%" y2="98.577%"><stop offset="0%" stop-color="#FA384D"/><stop offset="100%" stop-color="#FA513C"/></linearGradient></defs><g fill="none" fill-rule="evenodd"><path d="M-10-10h68v68h-68z"/><mask id="c" fill="#fff"><use xlink:href="#a"/></mask><path fill="url(#b)" d="M6.734 38.47h6.34c.625 0 1.14-.517 1.14-1.122a1.14 1.14 0 0 0-1.14-1.141h-6.34c-.646 0-1.16.506-1.16 1.141 0 .605.514 1.122 1.16 1.122zM24 11.414h6.34c.625 0 1.14-.506 1.14-1.132a1.13 1.13 0 0 0-1.14-1.121H24c-.635 0-1.16.496-1.16 1.121 0 .626.525 1.132 1.16 1.132zm0 9.022h6.34c.625 0 1.14-.516 1.14-1.132 0-.625-.515-1.131-1.14-1.131H24c-.635 0-1.16.506-1.16 1.131 0 .616.525 1.132 1.16 1.132zm0 9.012h6.34c.625 0 1.14-.507 1.14-1.122 0-.635-.515-1.131-1.14-1.131H24c-.635 0-1.16.496-1.16 1.131 0 .615.525 1.122 1.16 1.122zm0 9.022h6.34c.625 0 1.14-.517 1.14-1.122a1.14 1.14 0 0 0-1.14-1.141H24a1.15 1.15 0 0 0-1.16 1.141c0 .605.525 1.122 1.16 1.122zm21.169 6.758H21.027V3.781H45.17v41.447zm-27.963 0H3.841V22.212h13.366v23.016zM47.095 0H19.122a1.9 1.9 0 0 0-1.915 1.886V18.45H1.905C.867 18.45 0 19.294 0 20.336v26.778C0 48.156.867 49 1.905 49h45.19C48.133 49 49 48.156 49 47.114V1.886C49 .854 48.133 0 47.095 0zm-11.22 11.414h6.341c.625 0 1.14-.506 1.14-1.132a1.13 1.13 0 0 0-1.14-1.121h-6.34c-.636 0-1.15.496-1.15 1.121a1.14 1.14 0 0 0 1.15 1.132zM6.735 29.448h6.34c.625 0 1.14-.507 1.14-1.122 0-.635-.515-1.131-1.14-1.131h-6.34c-.646 0-1.16.496-1.16 1.131 0 .615.514 1.122 1.16 1.122zm29.142 9.022h6.34c.625 0 1.14-.517 1.14-1.122a1.14 1.14 0 0 0-1.14-1.141h-6.34c-.636 0-1.15.506-1.15 1.141 0 .605.514 1.122 1.15 1.122zm0-18.034h6.34c.625 0 1.14-.516 1.14-1.132 0-.625-.515-1.131-1.14-1.131h-6.34a1.14 1.14 0 0 0-1.15 1.131c0 .616.514 1.132 1.15 1.132zm0 9.012h6.34c.625 0 1.14-.507 1.14-1.122 0-.635-.515-1.131-1.14-1.131h-6.34c-.636 0-1.15.496-1.15 1.131 0 .615.514 1.122 1.15 1.122z" mask="url(#c)"/></g></svg>