<svg xmlns="http://www.w3.org/2000/svg" width="56" height="58" viewBox="0 0 56 58"><defs><linearGradient id="a" x1="0%" x2="98.577%" y1="0%" y2="98.577%"><stop offset="0%" stop-color="#FA384D"/><stop offset="100%" stop-color="#FA513C"/></linearGradient></defs><g fill="none" fill-rule="evenodd"><path stroke="url(#a)" stroke-width="3" d="M9 38.5h6.851a1 1 0 0 1 1 1V60a1 1 0 0 1-1 1H9a1 1 0 0 1-1-1V39.5a1 1 0 0 1 1-1zm28.766-6.75h6.851a1 1 0 0 1 1 1V60a1 1 0 0 1-1 1h-6.851a1 1 0 0 1-1-1V32.75a1 1 0 0 1 1-1zM23.383 17.125h6.851a1 1 0 0 1 1 1V60a1 1 0 0 1-1 1h-6.851a1 1 0 0 1-1-1V18.125a1 1 0 0 1 1-1zM52.149 7H59a1 1 0 0 1 1 1v52a1 1 0 0 1-1 1h-6.851a1 1 0 0 1-1-1V8a1 1 0 0 1 1-1z" transform="translate(-6 -5)"/><path d="M-6-5h68v68H-6z"/></g></svg>