<svg xmlns="http://www.w3.org/2000/svg" width="21" height="20" viewBox="0 0 21 20"><g fill="none" fill-rule="evenodd"><path fill="#9B9B9B" d="M4.674 6.388v13.273H.254V6.388h4.42zm.281-4.098c.014 1.273-.95 2.29-2.49 2.29h-.027C.95 4.58 0 3.563 0 2.29 0 .991.991 0 2.491 0c1.513 0 2.451.991 2.464 2.29zm6.563 5.985c.581-.909 1.63-2.195 3.978-2.195 2.906 0 5.075 1.902 5.075 5.974v7.607h-4.406v-7.098c0-1.782-.643-3-2.236-3-1.22 0-1.942.816-2.264 1.607-.107.294-.147.683-.147 1.084v7.407H7.112c.053-12.027 0-13.273 0-13.273h4.406v1.887z"/><path d="M-6-6h32v32H-6z"/></g></svg>