<svg width="33" height="32" viewBox="0 0 33 32" xmlns="http://www.w3.org/2000/svg"><title>logo_mobile_pactice_simple</title><g fill="none" fill-rule="evenodd"><path d="M8.628 4.057C3.699 6.513.5 11.462.5 16.98c0 3.41 1.216 6.636 3.39 9.206l4.738-22.13zm-.283 25.7a15.241 15.241 0 0 0 7.11 1.743c5.951 0 11.237-3.406 13.627-8.529L8.345 29.757zM30.4 17.523c.007-.18.01-.362.01-.543 0-8.017-6.692-14.52-14.955-14.52-.486 0-.97.022-1.448.066L30.4 17.523z" stroke="#9B9B9B"/><ellipse fill="#9B9B9B" cx="11.075" cy="2.514" rx="2.016" ry="1.959"/><ellipse fill="#9B9B9B" cx="30.5" cy="20.389" rx="2.016" ry="1.959"/><ellipse fill="#9B9B9B" fill-rule="nonzero" cx="5.549" cy="28.456" rx="2.688" ry="2.612"/><ellipse fill="#9B9B9B" cx="5.549" cy="28.456" rx="2.016" ry="1.959"/><path d="M15.455 26.73c-5.567 0-10.08-4.386-10.08-9.796 0-5.41 4.513-9.796 10.08-9.796s10.08 4.386 10.08 9.796c0 5.41-4.513 9.796-10.08 9.796zM14.18 13.036a.685.685 0 0 0-.405-.132.663.663 0 0 0-.672.653v6.753a.64.64 0 0 0 .11.359c.204.301.62.385.93.187l4.923-3.14a.641.641 0 0 0 .036-1.067l-4.922-3.613z" fill="#9B9B9B" fill-rule="nonzero"/></g></svg>