<svg xmlns="http://www.w3.org/2000/svg" width="168" height="128" viewBox="0 0 168 128"><defs><linearGradient id="a" x1="0%" x2="98.577%" y1="0%" y2="98.577%"><stop offset="0%" stop-color="#FA384D"/><stop offset="100%" stop-color="#FA513C"/></linearGradient></defs><g fill="none" fill-rule="evenodd"><path fill="url(#a)" d="M81.893 155.638c-9.34-7.259-16.712-17.47-20.592-28.647-.36.028-.665.055-.998.055-7.011 0-10.198-7.948-10.198-13.66 0-3.837 1.164-7.922 3.824-10.764a2.424 2.424 0 0 1-.055-.8l-.028-13.662-21.063-8.03v11.48c3.991 1.352 6.818 5.161 6.818 9.411 0 2.512-.97 4.83-2.522 6.568l5.765 9.908c.859 1.518.332 3.45-1.137 4.306-1.524.855-3.464.358-4.323-1.132l-4.6-7.92v9.162c0 1.711-1.414 3.118-3.188 3.118-1.718 0-3.131-1.407-3.131-3.118v-9.163l-4.573 7.921c-.887 1.49-2.827 1.987-4.324 1.132a3.136 3.136 0 0 1-1.136-4.306l5.737-9.908a9.882 9.882 0 0 1-2.522-6.568c0-4.25 2.827-8.059 6.818-9.41V77.48c-1.83-1.352-2.606-3.781-1.746-6.044a5.246 5.246 0 0 1 2.826-2.925l.056-.028 74.523-32.069a5.372 5.372 0 0 1 2.078-.414 5.58 5.58 0 0 1 2.079.414l74.523 32.069.027.028c1.247.552 2.328 1.573 2.827 2.925 1.026 2.705-.332 5.74-3.048 6.79l-26.08 9.934-.027 13.661c.028.304 0 .58-.055.8 2.66 2.843 3.824 6.928 3.824 10.764 0 5.713-3.215 13.661-10.199 13.661-.332 0-.665-.027-.997-.055-3.88 11.177-11.252 21.388-20.592 28.647-14.272 11.15-30.319 11.15-44.591 0zM27.026 97.092C26.378 97.764 26 98.66 26 99.696c0 2.044 1.539 3.64 3.456 3.696h.162c1.917-.056 3.483-1.652 3.483-3.696a3.802 3.802 0 0 0-1.026-2.604h-.027c-1.377-1.456-3.672-1.456-5.022 0zM104.014 47L43 72.408 58.107 78v-2.366c0-4.221 5.714-7.582 14.996-9.625 19.204-4.221 42.562-4.221 61.794 0 9.254 2.043 15.024 5.404 15.024 9.625V78L165 72.408 104.014 47zM73.922 72.171c-6.102 1.4-9.922 2.8-9.922 3.808v16.408a58.665 58.665 0 0 1 7.146-1.932c20.118-4.228 43.617-4.228 63.736 0A56.848 56.848 0 0 1 142 92.387V75.979c0-1.008-3.765-2.408-9.894-3.808-18.03-4.228-40.155-4.228-58.184 0zm.083 27.668C66.437 101.364 56 102.752 56 112.255c0 1.716.928 7.298 3.939 7.298.168 0 .393-.054.562-.109a2.16 2.16 0 0 0 .507-.245 4.1 4.1 0 0 1 1.097-.572c1.688-.408 3.46.518 3.966 2.151 3.264 11.11 10.353 21.185 19.721 28.32 12.153 9.203 25.263 9.203 37.388 0 9.368-7.135 16.457-17.21 19.749-28.32.478-1.633 2.25-2.56 3.938-2.15.394.135.788.353 1.097.571.17.109.338.19.507.245.169.055.394.109.562.109 3.01 0 3.967-5.582 3.967-7.298 0-9.503-10.465-10.891-18.033-12.416-19.13-3.785-41.832-3.785-60.962 0z" transform="translate(-16 -36)"/><path d="M-16-36h200v200H-16z"/></g></svg>