<svg xmlns="http://www.w3.org/2000/svg" width="54" height="54" viewBox="0 0 54 54"><defs><linearGradient id="a" x1="0%" x2="98.577%" y1="0%" y2="98.577%"><stop offset="0%" stop-color="#FA384D"/><stop offset="100%" stop-color="#FA513C"/></linearGradient></defs><g fill="none" fill-rule="evenodd"><path d="M-7-7h68v68H-7z"/><path fill="url(#a)" d="M34.01 7c7.44 0 14.19 3.02 19.08 7.91A26.861 26.861 0 0 1 61 33.99a26.874 26.874 0 0 1-7.91 19.1l-.098.099C48.09 58.024 41.385 61 34.01 61c-7.45 0-14.211-3.03-19.101-7.91A26.92 26.92 0 0 1 7 33.99c0-7.44 3.02-14.19 7.91-19.08l.13-.11A26.867 26.867 0 0 1 34.01 7zm-3.895 4.373c-.087.42-.163.883-.25 1.358-.467 2.67-1.043 5.827-2.532 7.317-.587.596-4.097 3.179-4.075 3.83 0 .176.793.176 3.716.176h.044c1.51 0 3.423.53 5.053 1.446 1.184.695 2.293 1.611 3.01 2.682.793 1.203 1.152 2.594.793 4.106v.01c-.217.95-.75 1.943-1.619 2.947-2.945 3.4-2.901 3.753-2.695 5.452.065.729.174 1.634.196 2.97.022.706.022 1.423.043 2.074.055 1.6.087 2.947-.021 3.973l-.022.055c-.728 6.081-5.945 1.788-7.814-.309-1.978-2.24-3.868-5.165-4.455-6.566-.174-.43-.935-.817-1.74-1.225-1.977-.983-4.183-2.097-4.292-5.596-.087-2.273.359-3.918.685-5.11.141-.574.674-.75.446-.828-.413-.143-1.174.034-1.935.2-.424.087-.87.176-1.293.23a23.96 23.96 0 0 0-.283 3.544 23.108 23.108 0 0 0 6.673 16.3h-.022l.022.012a22.398 22.398 0 0 0 8.618 5.485c1.923-.365 3.923-1.28 5.77-1.634 4.14-.794 8.194-1.556 12.693-.01a22.446 22.446 0 0 0 4.901-3.753l.109-.1a24.3 24.3 0 0 0 3.01-3.796c-.913.795-1.782 1.357-2.543 1.71-1.108.52-2.108.586-2.804.188h-.021a1.737 1.737 0 0 1-.49-.386l-.086-.088c-1.848-2.197-.913-5.121.065-8.09 1.021-3.157 2.076-6.445-1.826-7.66a11.304 11.304 0 0 1-1.869-.772c-1.565-.85-2.782-2.064-3.543-3.31-1.934-3.168-.64-4.978 1.424-7.285a78.7 78.7 0 0 0 .891-1.004c-1.63.088-3.738.198-4.76-2.55v-.01.01a6.743 6.743 0 0 1-.293-1.269v-.077c-.228-2.285-1.51-3.278-3.054-4.945h-.152c-1.25 0-2.478.1-3.673.298zM12.095 27.8l.215-.044c1.075-.228 2.14-.467 3.216-.108 1.947.663 1.657 1.782 1.13 3.782-.29 1.043-.667 2.478-.603 4.326.065 1.956 1.55 2.706 2.873 3.369 1.237.63 2.399 1.196 2.926 2.478.506 1.196 2.184 3.75 3.97 5.771.484.533 3.195 3.924 3.485 1.63.13-1.184.065-2.401.022-3.575 0-.652-.022-1.337-.043-2.098-.022-1.12-.118-1.967-.183-2.64-.323-2.599-.387-3.131 3.27-7.305.592-.663.904-1.282 1.055-1.837.172-.771-.022-1.478-.441-2.108-.484-.728-1.259-1.359-2.141-1.87-1.248-.695-2.69-1.097-3.809-1.097h-.043c-4.765 0-6.046 0-6.11-2.576-.065-2.348 3.238-4.109 4.766-5.608.903-.913 1.387-3.609 1.807-5.88l.065-.316a22.141 22.141 0 0 0-9.575 5.663l-.086.098a22.635 22.635 0 0 0-5.767 9.945zM41.45 55.994c-2.936-.302-5.794.224-8.708.762-.415.09-.852.19-1.29.314.83.079 1.682.135 2.534.135 2.611 0 5.1-.426 7.464-1.21zm14.678-17.512c.089-.175.188-.306.343-.416.31-1.434.454-2.922.454-4.443 0-6.305-2.589-12.007-6.76-16.156a23.066 23.066 0 0 0-12.599-6.392c1.04 1.27 1.836 2.594 2.035 4.346v.022c.045.273.078.514.144.722.387 1.018 1.516.941 2.379.897 1.36-.065 2.466-.12 2.876 1.347.387 1.423-.63 2.539-1.814 3.82-1.405 1.51-2.4 2.254-1.173 4.224.564.898 1.471 1.774 2.666 2.408.431.241.907.427 1.427.58 6.46 1.938 4.967 6.425 3.518 10.749-.73 2.21-1.45 4.378-.609 5.527l.586-.252c.653-.306 1.45-.843 2.335-1.62 1.382-1.247 2.898-3.053 4.192-5.363z" transform="translate(-7 -7)"/></g></svg>