<svg xmlns="http://www.w3.org/2000/svg" width="42" height="56" viewBox="0 0 42 56"><defs><linearGradient id="a" x1="0%" x2="98.577%" y1="0%" y2="98.577%"><stop offset="0%" stop-color="#FA384D"/><stop offset="100%" stop-color="#FA513C"/></linearGradient></defs><g fill="none" fill-rule="evenodd"><path fill="url(#a)" d="M53.094 30.859a5.615 5.615 0 0 0-3.906-1.688H23.724v-8.09c0-2.852 1.154-5.428 3.01-7.303l.085-.113c1.83-1.8 4.324-2.913 7.063-2.913 2.777 0 5.32 1.163 7.174 3.026a10.375 10.375 0 0 1 2.973 7.302v1.076c0 1.263 1.007 2.288 2.248 2.288h.172c1.253 0 2.26-1.025 2.26-2.288V21.08c0-4.151-1.683-7.927-4.373-10.666C41.67 7.701 37.96 6 33.882 6c-4.016 0-7.652 1.638-10.318 4.314l-.147.1a15.185 15.185 0 0 0-4.349 10.666v8.09h-.405c-1.56 0-2.973.651-3.98 1.689v.012A5.75 5.75 0 0 0 13 34.923v20.995a5.81 5.81 0 0 0 1.683 4.076 5.576 5.576 0 0 0 3.98 1.676h30.451a5.529 5.529 0 0 0 3.808-1.526l.172-.162a5.737 5.737 0 0 0 1.658-4.064V34.923a5.78 5.78 0 0 0-1.658-4.064zm-2.98 25.15c0 .29-.124.53-.296.72l-.062.075a1.09 1.09 0 0 1-.627.227H18.624a.976.976 0 0 1-.69-.303 1.054 1.054 0 0 1-.295-.718V34.844c0-.278.099-.53.295-.706v.012a.895.895 0 0 1 .69-.315h30.505c.258 0 .504.113.689.315a.993.993 0 0 1 .295.694V56.01zM33.907 37.315a6.088 6.088 0 0 0-4.147 1.617 5.395 5.395 0 0 0-1.684 3.908c0 1.52.638 2.907 1.684 3.908a6.209 6.209 0 0 0 2.692 1.447v2.823c0 .76.65 1.375 1.455 1.375.816 0 1.467-.615 1.467-1.375v-2.823a5.979 5.979 0 0 0 2.666-1.447c1.072-1.001 1.722-2.389 1.722-3.908 0-1.52-.65-2.907-1.722-3.908-1.046-1.001-2.513-1.617-4.133-1.617zm.027 8.119h-.114a2.305 2.305 0 0 1-1.58-.686 2.311 2.311 0 0 1-.684-1.634c0-.635.271-1.23.684-1.644a2.335 2.335 0 0 1 1.64-.675c.644 0 1.218.262 1.65.675.413.414.665 1.009.665 1.644 0 .646-.252 1.22-.664 1.634a2.326 2.326 0 0 1-1.597.686z" transform="translate(-13 -6)"/><path d="M-13-6h68v68h-68z"/></g></svg>