<svg xmlns="http://www.w3.org/2000/svg" width="62" height="55" viewBox="0 0 62 55"><defs><linearGradient id="a" x1="12.844%" x2="76.069%" y1="50%" y2="264.834%"><stop offset="0%" stop-color="#FA384D"/><stop offset="100%" stop-color="#FA513C"/></linearGradient></defs><g fill="none" fill-rule="evenodd"><path fill="url(#a)" d="M36.04 13.578c2.36.302 4.668.82 6.906 1.547l3.231-3.426a41.893 41.893 0 0 0-6.567-1.906 42.701 42.701 0 0 0-8.453-.843c-11.368 0-22.062 4.466-30.111 12.575a2.164 2.164 0 0 0 0 3.046 2.126 2.126 0 0 0 3.023 0c7.242-7.296 16.861-11.314 27.088-11.314 1.646 0 3.274.117 4.882.321m19.09 2.819a42.082 42.082 0 0 0-5.387-3.155L46.63 16.54a37.903 37.903 0 0 1 5.513 3.024 38.854 38.854 0 0 1 6.102 5.007 2.12 2.12 0 0 0 1.512.63c.547 0 1.093-.21 1.511-.63a2.165 2.165 0 0 0 0-3.046 43.203 43.203 0 0 0-6.139-5.128zm-7.21 7.644a32.543 32.543 0 0 0-5.797-2.722l-3.284 3.482a28.33 28.33 0 0 1 6.046 2.458 29.025 29.025 0 0 1 6.615 4.988 2.123 2.123 0 0 0 3.023 0 2.165 2.165 0 0 0 0-3.046 33.295 33.295 0 0 0-6.602-5.16"/><path fill="url(#a)" d="M31.157 23.752c1.163 0 2.313.077 3.45.214l3.554-3.768a33.061 33.061 0 0 0-7.004-.754c-.223 0-.444.012-.665.016-8.572.17-16.612 3.608-22.698 9.742a2.163 2.163 0 0 0 0 3.045 2.126 2.126 0 0 0 3.023 0c4.198-4.23 9.465-6.987 15.183-8.025a28.76 28.76 0 0 1 5.157-.47m9.41 8.085a23.835 23.835 0 0 0-6.691-1.776l-3.954 4.194c2.51-.159 5.04.164 7.45.97a19.479 19.479 0 0 1 7.694 4.763 2.121 2.121 0 0 0 3.023 0 2.165 2.165 0 0 0 0-3.045 23.792 23.792 0 0 0-7.522-5.106m-26.341 5.106a2.165 2.165 0 0 0 0 3.045 2.126 2.126 0 0 0 3.023 0 19.543 19.543 0 0 1 6.218-4.211l5.45-5.78a23.768 23.768 0 0 0-14.691 6.946m16.66 13.815c-1.98 0-3.588-1.622-3.588-3.614 0-.625.172-1.203.449-1.716a3.608 3.608 0 0 1 1.287-1.364 3.534 3.534 0 0 1 1.851-.535c1.98 0 3.588 1.621 3.588 3.615 0 1.992-1.609 3.614-3.588 3.614m1.86-10.628a7.101 7.101 0 0 0-1.86-.253c-3.978 0-7.214 3.26-7.214 7.267 0 .778.125 1.528.352 2.233.937 2.918 3.658 5.035 6.862 5.035 3.98 0 7.215-3.261 7.215-7.268a7.265 7.265 0 0 0-5.356-7.014"/><path fill="url(#a)" d="M54.875 3.256L8.628 52.445a1.85 1.85 0 0 1-2.635.07 1.898 1.898 0 0 1-.066-2.662L52.175.664a1.85 1.85 0 0 1 2.635-.07c.745.716.775 1.907.065 2.662z"/><path d="M-3-7h68v68H-3z"/></g></svg>