<svg width="157" height="133" viewBox="0 0 157 133" xmlns="http://www.w3.org/2000/svg"><title>icon_by_providing</title><defs><linearGradient x1="-133.312%" y1="34.794%" x2="98.577%" y2="67.124%" id="a"><stop stop-color="#FA384D" offset="0%"/><stop stop-color="#FA513C" offset="100%"/></linearGradient><linearGradient x1="-133.312%" y1="22.942%" x2="98.577%" y2="80.471%" id="b"><stop stop-color="#FA384D" offset="0%"/><stop stop-color="#FA513C" offset="100%"/></linearGradient><linearGradient x1="-133.312%" y1="34.977%" x2="98.577%" y2="66.917%" id="c"><stop stop-color="#FA384D" offset="0%"/><stop stop-color="#FA513C" offset="100%"/></linearGradient></defs><g fill="none" fill-rule="evenodd"><path d="M151 93c1 16-24 13-24.9 14-.257-21.717-10.777-39.334-29.1-50.762 9.483-11.626 11.76-24.51 6.778-38.575 9.609-4.074 21.05-.446 27.15 8.519 6.853 10.083 5.13 21.9-4.828 31.94C141.367 66.707 149.667 78.333 151 93z" stroke="url(#a)" stroke-width="5" transform="translate(3 4)"/><path d="M95.817 57.009c5.906 5.092 12.318 9.67 17.546 15.341 7.395 8.024 10.592 18.144 11.56 28.99.56 6.243-1.966 10.807-7.043 14.166-7.338 4.852-15.658 6.844-24.176 8.063-16.592 2.377-33.09 2.036-49.236-2.877-17.5-5.323-21.565-13.004-16.362-30.605 4.008-13.554 12.318-23.717 24.758-30.442.98-.529 1.98-1.014 3.398-1.74-8.737-7.733-13.301-17.094-12.48-28.541.596-8.318 4.084-15.425 10.284-21.093 12.278-11.22 31.195-10.997 43.208.5 13.767 13.174 13.032 30.565-1.457 48.238z" stroke="url(#b)" stroke-width="7" transform="translate(3 4)"/><path d="M27.727 108.81c-7.769-.622-16.67-2.14-22.88-6.047-3.43-2.155-5.05-5.17-4.827-9.36.715-13.358 6.843-23.358 18.302-30.183 1.09-.65 2.244-1.194 3.827-2.028C16.086 55.515 6 41.81 18.495 27.452c6.567-7.545 17.437-10.85 27.385-6.533-4.75 13.843-2.395 26.595 7.12 38.085-18.31 11.498-25.345 27.902-25.273 49.806z" stroke="url(#c)" stroke-width="5" transform="translate(3 4)"/></g></svg>