<svg xmlns="http://www.w3.org/2000/svg" width="52" height="52" viewBox="0 0 52 52"><defs><linearGradient id="a" x1="0%" x2="98.577%" y1="0%" y2="98.577%"><stop offset="0%" stop-color="#FA384D"/><stop offset="100%" stop-color="#FA513C"/></linearGradient></defs><g fill="none" fill-rule="evenodd"><path fill="url(#a)" d="M57.999 8H10a1.998 1.998 0 0 0-2 1.991v48.007A2 2 0 0 0 10.001 60H58a2.007 2.007 0 0 0 2-2.002V9.991A2.005 2.005 0 0 0 57.999 8zM21.27 55.997h-9.269v-3.93h2.981a2.003 2.003 0 0 0 0-4.003h-2.98v-6.71h2.98a2 2 0 1 0 0-4.004h-2.98v-6.71h2.98a1.998 1.998 0 0 0 2.001-1.992 2 2 0 0 0-2-2.001h-2.982v-6.711h2.981a2 2 0 1 0 0-4.003h-2.98v-3.93h9.268v43.994zm2.402 0h32.325V12.003H23.673v43.994zm7.994-10.377h16.336c.664 0 1.201-.548 1.201-1.201v-1.76c0-.863-.169-1.695-.485-2.454a6.39 6.39 0 0 0-1.4-2.075 6.503 6.503 0 0 0-2.075-1.401l-.295-.106.2-.179a7.538 7.538 0 0 0 2.19-5.31 7.5 7.5 0 0 0-12.808-5.31 7.503 7.503 0 0 0 0 10.62l.19.18a6.162 6.162 0 0 0-2.37 1.506 6.39 6.39 0 0 0-1.895 4.53v1.759c0 .653.547 1.2 1.211 1.2zm4.55-18.099a5.11 5.11 0 0 1 3.623-1.496c1.412 0 2.686.569 3.603 1.496a5.07 5.07 0 0 1 1.495 3.614 5.063 5.063 0 0 1-1.495 3.602 5.063 5.063 0 0 1-3.54 1.496h-.126a5.133 5.133 0 0 1-3.56-1.496 5.098 5.098 0 0 1-1.485-3.602c0-1.412.569-2.697 1.485-3.614zm-3.35 15.139c0-.548.106-1.075.296-1.538a4.04 4.04 0 0 1 3.718-2.486h5.909c.547 0 1.063.105 1.527.305a4.095 4.095 0 0 1 2.19 2.18c.19.464.306.99.306 1.539v.558H32.868v-.558z" transform="translate(-8 -8)"/><path d="M-8-8h68v68H-8z"/></g></svg>