<svg xmlns="http://www.w3.org/2000/svg" width="51" height="54" viewBox="0 0 51 54"><defs><linearGradient id="a" x1="0%" x2="98.577%" y1="0%" y2="98.577%"><stop offset="0%" stop-color="#FA384D"/><stop offset="100%" stop-color="#FA513C"/></linearGradient></defs><g fill="none" fill-rule="evenodd"><path fill="url(#a)" d="M27.685 7c7.074 0 13.133 5.319 14.215 12.396 1.07-.35 2.196-.541 3.377-.541 3.157 0 6.015 1.33 8.09 3.425a11.785 11.785 0 0 1 3.344 8.26 11.88 11.88 0 0 1-3.09 7.979l2.715 2.76c1.214 1.24 2.119 2.604 2.737 4.136.607 1.522.927 3.156.927 4.88v3.47c0 .902-.276 1.871-.795 2.626-.562.8-1.401 1.386-2.46 1.499-.09 0-.144.011-.233.011l-2.626.011v.936c0 1.183-.95 2.152-2.097 2.152H19.132c-1.137 0-2.086-.97-2.086-2.152v-1.905H12.95a1.81 1.81 0 0 1-.441-.056c-1.115-.17-1.976-.823-2.583-1.68C9.32 54.34 9 53.226 9 52.166v-4.541c0-2.186.386-4.26 1.17-6.175.772-1.916 1.931-3.651 3.443-5.207l4.029-4.113c-2.693-2.76-4.305-6.423-4.305-10.468C13.337 13.592 19.805 7 27.685 7zm21.974 50.625v-7.26c0-.752.574-1.372 1.269-1.372.684 0 1.247.62 1.247 1.371v3.994h3.62V50.83c0-1.24-.188-2.396-.574-3.433a9.33 9.33 0 0 0-1.832-2.921l-3.167-3.398a10.686 10.686 0 0 1-4.702 1.204c.574 1.8.883 3.708.883 5.723v4.804c0 1.121-.32 2.301-.927 3.22-.475.727-1.126 1.287-1.898 1.597h6.08zm-7.781-33.62l-.022.124v.078l-.022.046v.022l-.133.62v.067l-.022.057-.022.067c-.629 2.615-1.92 5.015-3.796 6.93h-.022v.012l-.078.101 4.029 4.113c.408.417.794.868 1.158 1.319.287.09.585.169.883.237.43.101.905.146 1.446.146 1.987 0 3.797-.834 5.11-2.164a7.462 7.462 0 0 0 2.13-5.24c0-2.04-.817-3.899-2.13-5.228-1.313-1.33-3.123-2.175-5.11-2.175-.772 0-1.5.135-2.196.35a8.088 8.088 0 0 0-1.203.518zM18.008 53.4v-5.89c0-.727.601-1.325 1.306-1.325.716 0 1.295.598 1.295 1.326v10.113h13.328V47.512c0-.728.58-1.326 1.295-1.326.705 0 1.284.598 1.284 1.326v5.89h5.704v-5.245c0-1.713-.284-3.285-.886-4.728a11.678 11.678 0 0 0-1.375-2.5l-.045-.07c-.375-.516-.784-.962-1.205-1.407l-4.613-4.787a14.368 14.368 0 0 1-13.646 0l-4.522 4.681-.091.106c-1.182 1.22-2.068 2.546-2.647 3.977-.58 1.431-.864 3.015-.864 4.728v4.728c0 .2.046.387.114.516h5.567zm9.677-42.13c-5.574 0-10.165 4.676-10.165 10.39 0 5.78 4.614 10.378 10.165 10.378 5.54 0 10.176-4.564 10.176-10.378 0-5.725-4.547-10.39-10.176-10.39z" transform="translate(-9 -7)"/><path d="M-9-7h68v68H-9z"/></g></svg>