<svg xmlns="http://www.w3.org/2000/svg" width="22" height="18" viewBox="0 0 22 18"><g fill="none" fill-rule="evenodd"><path fill="#9B9B9B" d="M21.107 2.036a9.3 9.3 0 0 1-2.17 2.236c.014.188.014.375.014.563 0 5.719-4.353 12.308-12.308 12.308-2.451 0-4.728-.71-6.643-1.942.348.04.683.053 1.045.053a8.663 8.663 0 0 0 5.37-1.848 4.333 4.333 0 0 1-4.044-3c.267.04.535.067.817.067.388 0 .776-.053 1.138-.147A4.326 4.326 0 0 1 .857 6.08v-.053a4.357 4.357 0 0 0 1.956.549 4.323 4.323 0 0 1-1.93-3.603c0-.803.215-1.54.59-2.183a12.296 12.296 0 0 0 8.92 4.527 4.883 4.883 0 0 1-.107-.991A4.324 4.324 0 0 1 14.612 0c1.245 0 2.37.522 3.16 1.366A8.516 8.516 0 0 0 20.518.321a4.314 4.314 0 0 1-1.902 2.384 8.673 8.673 0 0 0 2.491-.67z"/><path d="M-5-7h32v32H-5z"/></g></svg>